<svg xmlns="http://www.w3.org/2000/svg" width="1800" height="1100" viewBox="0 0 1800 1100">
<title>DRESSROSA + GREEN BIT — RELATIONSHIPS BEFORE DETAIL</title>
<defs>
  <linearGradient id="bg" x1="0" y1="0" x2="0" y2="1"><stop stop-color="#102a38"/><stop offset="1" stop-color="#050d14"/></linearGradient>
  <linearGradient id="sea" x1="0" y1="0" x2="0" y2="1"><stop stop-color="#1b748e"/><stop offset="1" stop-color="#092938"/></linearGradient>
  <linearGradient id="stone" x1="0" y1="0" x2="1" y2="1"><stop stop-color="#e0d0b3"/><stop offset="1" stop-color="#745f55"/></linearGradient>
  <linearGradient id="cloud" x1="0" y1="0" x2="0" y2="1"><stop stop-color="#fffde8"/><stop offset="1" stop-color="#9ed8e5"/></linearGradient>
  <filter id="glow"><feGaussianBlur stdDeviation="9" result="b"/><feMerge><feMergeNode in="b"/><feMergeNode in="SourceGraphic"/></feMerge></filter>
  <filter id="shadow"><feDropShadow dx="0" dy="10" stdDeviation="10" flood-opacity=".35"/></filter>
  <marker id="arrow" viewBox="0 0 10 10" refX="8" refY="5" markerWidth="7" markerHeight="7" orient="auto"><path d="M0 0L10 5L0 10z" fill="#75dfef"/></marker>
</defs>
<rect width="1800" height="1100" fill="url(#bg)"/>
<circle cx="1510" cy="-60" r="390" fill="#f1c86a" opacity=".06"/>
<text x="64" y="75" fill="#fff7df" font-family="Georgia,serif" font-size="45">DRESSROSA + GREEN BIT — RELATIONSHIPS BEFORE DETAIL</text>
<text x="66" y="114" fill="#95b8c1" font-family="Arial,sans-serif" font-size="19">Cited topology board • bearings only where supported • city states remain separate</text>
<rect x="1500" y="46" width="238" height="54" rx="27" fill="#0a1720" stroke="#f1c86a" stroke-width="2"/>
<text x="1619" y="80" text-anchor="middle" fill="#f1c86a" font-family="Arial,sans-serif" font-size="17">PRIORITY 01</text>

<rect x="58" y="155" width="1684" height="780" rx="24" fill="url(#sea)" stroke="#335865"/>
<ellipse cx="850" cy="585" rx="525" ry="330" fill="#587f4e" stroke="#d9c48e" stroke-width="13" filter="url(#shadow)"/>
<path d="M630 558L695 430L850 360L1010 430L1085 558L1018 705L850 780L685 705Z" fill="#c27b70" stroke="#ffe2a1" stroke-width="12"/>
<path d="M720 565L755 478L850 438L948 478L983 565L948 650L850 690L755 650Z" fill="#794f65" stroke="#f4c274" stroke-width="8"/>
<path d="M790 456L790 388L830 352L850 305L870 352L910 388L910 456Z" fill="#e3d5b5" stroke="#fff2cd" stroke-width="6"/>
<text x="850" y="584" text-anchor="middle" fill="#fff2cf" font-family="Georgia,serif" font-size="24">KING'S PLATEAU</text>
<text x="850" y="615" text-anchor="middle" fill="#debddd" font-family="Arial,sans-serif" font-size="15">PALACE — PRE-PICA</text>
<rect x="1037.0" y="550.0" width="26" height="20" rx="4" fill="#e77d63" stroke="#fff0cf" stroke-width="2" transform="rotate(0 1050.0 560.0)"/><rect x="1082.2" y="573.7" width="26" height="20" rx="4" fill="#e7bb5f" stroke="#fff0cf" stroke-width="2" transform="rotate(17 1095.2 583.7)"/><rect x="1119.8" y="605.8" width="26" height="20" rx="4" fill="#78b89d" stroke="#fff0cf" stroke-width="2" transform="rotate(34 1132.8 615.8)"/><rect x="1146.9" y="645.5" width="26" height="20" rx="4" fill="#a987c7" stroke="#fff0cf" stroke-width="2" transform="rotate(51 1159.9 655.5)"/><rect x="1002.2" y="622.1" width="26" height="20" rx="4" fill="#e77d63" stroke="#fff0cf" stroke-width="2" transform="rotate(68 1015.2 632.1)"/><rect x="1018.8" y="658.0" width="26" height="20" rx="4" fill="#e7bb5f" stroke="#fff0cf" stroke-width="2" transform="rotate(85 1031.8 668.0)"/><rect x="1021.6" y="698.1" width="26" height="20" rx="4" fill="#78b89d" stroke="#fff0cf" stroke-width="2" transform="rotate(102 1034.6 708.1)"/><rect x="1009.0" y="740.7" width="26" height="20" rx="4" fill="#a987c7" stroke="#fff0cf" stroke-width="2" transform="rotate(119 1022.0 750.7)"/><rect x="910.1" y="669.2" width="26" height="20" rx="4" fill="#e77d63" stroke="#fff0cf" stroke-width="2" transform="rotate(136 923.1 679.2)"/><rect x="892.2" y="704.7" width="26" height="20" rx="4" fill="#e7bb5f" stroke="#fff0cf" stroke-width="2" transform="rotate(153 905.2 714.7)"/><rect x="859.1" y="738.9" width="26" height="20" rx="4" fill="#78b89d" stroke="#fff0cf" stroke-width="2" transform="rotate(170 872.1 748.9)"/><rect x="811.3" y="769.5" width="26" height="20" rx="4" fill="#a987c7" stroke="#fff0cf" stroke-width="2" transform="rotate(187 824.3 779.5)"/><rect x="792.5" y="674.8" width="26" height="20" rx="4" fill="#e77d63" stroke="#fff0cf" stroke-width="2" transform="rotate(204 805.5 684.8)"/><rect x="746.4" y="697.7" width="26" height="20" rx="4" fill="#e7bb5f" stroke="#fff0cf" stroke-width="2" transform="rotate(221 759.4 707.7)"/><rect x="689.0" y="714.1" width="26" height="20" rx="4" fill="#78b89d" stroke="#fff0cf" stroke-width="2" transform="rotate(238 702.0 724.1)"/><rect x="622.5" y="722.1" width="26" height="20" rx="4" fill="#a987c7" stroke="#fff0cf" stroke-width="2" transform="rotate(255 635.5 732.1)"/><rect x="690.4" y="637.1" width="26" height="20" rx="4" fill="#e77d63" stroke="#fff0cf" stroke-width="2" transform="rotate(272 703.4 647.1)"/><rect x="632.1" y="639.4" width="26" height="20" rx="4" fill="#e7bb5f" stroke="#fff0cf" stroke-width="2" transform="rotate(289 645.1 649.4)"/><rect x="570.3" y="632.2" width="26" height="20" rx="4" fill="#78b89d" stroke="#fff0cf" stroke-width="2" transform="rotate(306 583.3 642.2)"/><rect x="508.3" y="614.9" width="26" height="20" rx="4" fill="#a987c7" stroke="#fff0cf" stroke-width="2" transform="rotate(323 521.3 624.9)"/><rect x="639.2" y="569.1" width="26" height="20" rx="4" fill="#e77d63" stroke="#fff0cf" stroke-width="2" transform="rotate(340 652.2 579.1)"/><rect x="589.0" y="550.0" width="26" height="20" rx="4" fill="#e7bb5f" stroke="#fff0cf" stroke-width="2" transform="rotate(357 602.0 560.0)"/><rect x="544.3" y="521.8" width="26" height="20" rx="4" fill="#78b89d" stroke="#fff0cf" stroke-width="2" transform="rotate(374 557.3 531.8)"/><rect x="508.3" y="485.1" width="26" height="20" rx="4" fill="#a987c7" stroke="#fff0cf" stroke-width="2" transform="rotate(391 521.3 495.1)"/><rect x="656.8" y="494.5" width="26" height="20" rx="4" fill="#e77d63" stroke="#fff0cf" stroke-width="2" transform="rotate(408 669.8 504.5)"/><rect x="632.1" y="460.6" width="26" height="20" rx="4" fill="#e7bb5f" stroke="#fff0cf" stroke-width="2" transform="rotate(425 645.1 470.6)"/><rect x="620.0" y="421.1" width="26" height="20" rx="4" fill="#78b89d" stroke="#fff0cf" stroke-width="2" transform="rotate(442 633.0 431.1)"/><rect x="622.5" y="377.9" width="26" height="20" rx="4" fill="#a987c7" stroke="#fff0cf" stroke-width="2" transform="rotate(459 635.5 387.9)"/><rect x="737.0" y="439.1" width="26" height="20" rx="4" fill="#e77d63" stroke="#fff0cf" stroke-width="2" transform="rotate(476 750.0 449.1)"/><rect x="746.4" y="402.3" width="26" height="20" rx="4" fill="#e7bb5f" stroke="#fff0cf" stroke-width="2" transform="rotate(493 759.4 412.3)"/><rect x="771.1" y="365.3" width="26" height="20" rx="4" fill="#78b89d" stroke="#fff0cf" stroke-width="2" transform="rotate(510 784.1 375.3)"/><rect x="811.3" y="330.5" width="26" height="20" rx="4" fill="#a987c7" stroke="#fff0cf" stroke-width="2" transform="rotate(527 824.3 340.5)"/><rect x="851.9" y="422.4" width="26" height="20" rx="4" fill="#e77d63" stroke="#fff0cf" stroke-width="2" transform="rotate(544 864.9 432.4)"/><rect x="892.2" y="395.3" width="26" height="20" rx="4" fill="#e7bb5f" stroke="#fff0cf" stroke-width="2" transform="rotate(561 905.2 405.3)"/><rect x="945.1" y="373.7" width="26" height="20" rx="4" fill="#78b89d" stroke="#fff0cf" stroke-width="2" transform="rotate(578 958.1 383.7)"/><rect x="1009.0" y="359.3" width="26" height="20" rx="4" fill="#a987c7" stroke="#fff0cf" stroke-width="2" transform="rotate(595 1022.0 369.3)"/><rect x="961.7" y="449.9" width="26" height="20" rx="4" fill="#e77d63" stroke="#fff0cf" stroke-width="2" transform="rotate(612 974.7 459.9)"/><rect x="1018.8" y="442.0" width="26" height="20" rx="4" fill="#e7bb5f" stroke="#fff0cf" stroke-width="2" transform="rotate(629 1031.8 452.0)"/><rect x="1081.6" y="443.3" width="26" height="20" rx="4" fill="#78b89d" stroke="#fff0cf" stroke-width="2" transform="rotate(646 1094.6 453.3)"/><rect x="1146.9" y="454.5" width="26" height="20" rx="4" fill="#a987c7" stroke="#fff0cf" stroke-width="2" transform="rotate(663 1159.9 464.5)"/><rect x="1028.1" y="512.3" width="26" height="20" rx="4" fill="#e77d63" stroke="#fff0cf" stroke-width="2" transform="rotate(680 1041.1 522.3)"/><rect x="1082.2" y="526.3" width="26" height="20" rx="4" fill="#e7bb5f" stroke="#fff0cf" stroke-width="2" transform="rotate(697 1095.2 536.3)"/>
<circle cx="435" cy="646" r="78" fill="#d7a653" stroke="#fff0bb" stroke-width="7"/>
<path d="M393 647Q435 590 477 647Q435 705 393 647Z" fill="#a54845"/>
<text x="435" y="756" text-anchor="middle" fill="#fff" font-family="Arial,sans-serif" font-size="16">CORRIDA COLOSSEUM</text>
<circle cx="1110" cy="705" r="72" fill="#d87196" stroke="#ffe1c3" stroke-width="7"/>
<circle cx="1085" cy="678" r="18" fill="#f6cc5c"/><circle cx="1138" cy="692" r="20" fill="#ef7d75"/><circle cx="1112" cy="729" r="22" fill="#a9d47b"/>
<text x="1110" y="806" text-anchor="middle" fill="#fff" font-family="Arial,sans-serif" font-size="16">FLOWER HILL</text>
<ellipse cx="1450" cy="375" rx="230" ry="150" fill="#3f8c58" stroke="#bde5a2" stroke-width="11"/>
<path d="M1325 375Q1450 330 1575 375" fill="none" stroke="#788b91" stroke-width="23"/>
<path d="M1325 375Q1450 330 1575 375" fill="none" stroke="#dae4df" stroke-width="7" stroke-dasharray="15 9"/>
<path d="M1210 420Q1120 450 1080 490" fill="none" stroke="#788b91" stroke-width="23"/>
<path d="M1210 420Q1120 450 1080 490" fill="none" stroke="#dae4df" stroke-width="7" stroke-dasharray="15 9"/>
<text x="1450" y="380" text-anchor="middle" fill="#f2ffd9" font-family="Georgia,serif" font-size="25">GREEN BIT</text>
<text x="1307" y="474" fill="#dbe8e5" font-family="Arial,sans-serif" font-size="15">IRON BRIDGE — NORTH CONNECTOR</text>
<rect x="96" y="195" width="370" height="134" rx="17" fill="#07151d" stroke="#6e5366"/>
<text x="123" y="233" fill="#f1c86a" font-family="Arial,sans-serif" font-size="17">DO NOT MERGE THESE IDEAS</text>
<text x="123" y="270" fill="#dbe5e4" font-family="Arial,sans-serif" font-size="17">Bridge → Green Bit</text>
<text x="123" y="300" fill="#dbe5e4" font-family="Arial,sans-serif" font-size="17">Palace → central King's Plateau</text>
<rect x="1325" y="666" width="330" height="170" rx="17" fill="#07151d" stroke="#bd7581"/>
<text x="1352" y="704" fill="#ef9fa9" font-family="Arial,sans-serif" font-size="17">TEMPORAL VARIANT</text>
<text x="1352" y="741" fill="#fff" font-family="Georgia,serif" font-size="22">Pica remodels the city</text>
<text x="1352" y="776" fill="#afc2c7" font-family="Arial,sans-serif" font-size="15">Palace relocates to a new plateau</text>
<text x="1352" y="804" fill="#afc2c7" font-family="Arial,sans-serif" font-size="15">at Flower Hill; gate to verify.</text>
<rect x="60" y="962" width="1680" height="102" rx="18" fill="#07141d" stroke="#315363"/>
<text x="88" y="998" fill="#f1c86a" font-family="Arial,sans-serif" font-size="16">BLENDER RULE — two terrain layouts, never one blended impossible city</text>
<text x="88" y="1027" fill="#b8cdd1" font-family="Arial,sans-serif" font-size="15">Pre-Pica collection  •  Post-Pica collection  •  Birdcage as a temporary event volume</text>
</svg>
