<svg xmlns="http://www.w3.org/2000/svg" width="1800" height="1100" viewBox="0 0 1800 1100">
<title>LOGUETOWN — THE SCAFFOLD AT THE HEART OF THE CITY</title>
<defs>
  <linearGradient id="bg" x1="0" y1="0" x2="0" y2="1"><stop stop-color="#102a38"/><stop offset="1" stop-color="#050d14"/></linearGradient>
  <linearGradient id="sea" x1="0" y1="0" x2="0" y2="1"><stop stop-color="#1b748e"/><stop offset="1" stop-color="#092938"/></linearGradient>
  <linearGradient id="stone" x1="0" y1="0" x2="1" y2="1"><stop stop-color="#e0d0b3"/><stop offset="1" stop-color="#745f55"/></linearGradient>
  <linearGradient id="cloud" x1="0" y1="0" x2="0" y2="1"><stop stop-color="#fffde8"/><stop offset="1" stop-color="#9ed8e5"/></linearGradient>
  <filter id="glow"><feGaussianBlur stdDeviation="9" result="b"/><feMerge><feMergeNode in="b"/><feMergeNode in="SourceGraphic"/></feMerge></filter>
  <filter id="shadow"><feDropShadow dx="0" dy="10" stdDeviation="10" flood-opacity=".35"/></filter>
  <marker id="arrow" viewBox="0 0 10 10" refX="8" refY="5" markerWidth="7" markerHeight="7" orient="auto"><path d="M0 0L10 5L0 10z" fill="#75dfef"/></marker>
</defs>
<rect width="1800" height="1100" fill="url(#bg)"/>
<circle cx="1510" cy="-60" r="390" fill="#f1c86a" opacity=".06"/>
<text x="64" y="75" fill="#fff7df" font-family="Georgia,serif" font-size="45">LOGUETOWN — THE SCAFFOLD AT THE HEART OF THE CITY</text>
<text x="66" y="114" fill="#95b8c1" font-family="Arial,sans-serif" font-size="19">Event landmark board • city / square / scaffold / repeated cinematic composition</text>
<rect x="1500" y="46" width="238" height="54" rx="27" fill="#0a1720" stroke="#f1c86a" stroke-width="2"/>
<text x="1619" y="80" text-anchor="middle" fill="#f1c86a" font-family="Arial,sans-serif" font-size="17">PRIORITY 01</text>

<rect x="58" y="155" width="1684" height="780" rx="24" fill="#0c202b" stroke="#335865"/>
<circle cx="1350" cy="300" r="112" fill="#e4c77f" opacity=".65"/>
<rect x="75" y="635" width="105" height="165" fill="#344d56" stroke="#77909a" stroke-width="2"/><path d="M67 635L127 587L188 635Z" fill="#6b3d3c" stroke="#bd7868" stroke-width="3"/><rect x="93" y="665" width="18" height="25" fill="#e8c276" opacity=".75"/><rect x="143" y="665" width="18" height="25" fill="#e8c276" opacity=".75"/><rect x="93" y="713" width="18" height="25" fill="#e8c276" opacity=".75"/><rect x="143" y="713" width="18" height="25" fill="#e8c276" opacity=".75"/><rect x="93" y="761" width="18" height="25" fill="#e8c276" opacity=".75"/><rect x="143" y="761" width="18" height="25" fill="#e8c276" opacity=".75"/><rect x="203" y="588" width="105" height="212" fill="#283f49" stroke="#77909a" stroke-width="2"/><path d="M195 588L255 540L316 588Z" fill="#6b3d3c" stroke="#bd7868" stroke-width="3"/><rect x="221" y="618" width="18" height="25" fill="#e8c276" opacity=".75"/><rect x="271" y="618" width="18" height="25" fill="#e8c276" opacity=".75"/><rect x="221" y="666" width="18" height="25" fill="#e8c276" opacity=".75"/><rect x="271" y="666" width="18" height="25" fill="#e8c276" opacity=".75"/><rect x="221" y="714" width="18" height="25" fill="#e8c276" opacity=".75"/><rect x="271" y="714" width="18" height="25" fill="#e8c276" opacity=".75"/><rect x="331" y="541" width="105" height="259" fill="#344d56" stroke="#77909a" stroke-width="2"/><path d="M323 541L383 493L444 541Z" fill="#6b3d3c" stroke="#bd7868" stroke-width="3"/><rect x="349" y="571" width="18" height="25" fill="#e8c276" opacity=".75"/><rect x="399" y="571" width="18" height="25" fill="#e8c276" opacity=".75"/><rect x="349" y="619" width="18" height="25" fill="#e8c276" opacity=".75"/><rect x="399" y="619" width="18" height="25" fill="#e8c276" opacity=".75"/><rect x="349" y="667" width="18" height="25" fill="#e8c276" opacity=".75"/><rect x="399" y="667" width="18" height="25" fill="#e8c276" opacity=".75"/><rect x="459" y="494" width="105" height="306" fill="#283f49" stroke="#77909a" stroke-width="2"/><path d="M451 494L511 446L572 494Z" fill="#6b3d3c" stroke="#bd7868" stroke-width="3"/><rect x="477" y="524" width="18" height="25" fill="#e8c276" opacity=".75"/><rect x="527" y="524" width="18" height="25" fill="#e8c276" opacity=".75"/><rect x="477" y="572" width="18" height="25" fill="#e8c276" opacity=".75"/><rect x="527" y="572" width="18" height="25" fill="#e8c276" opacity=".75"/><rect x="477" y="620" width="18" height="25" fill="#e8c276" opacity=".75"/><rect x="527" y="620" width="18" height="25" fill="#e8c276" opacity=".75"/><rect x="587" y="617" width="105" height="183" fill="#344d56" stroke="#77909a" stroke-width="2"/><path d="M579 617L639 569L700 617Z" fill="#6b3d3c" stroke="#bd7868" stroke-width="3"/><rect x="605" y="647" width="18" height="25" fill="#e8c276" opacity=".75"/><rect x="655" y="647" width="18" height="25" fill="#e8c276" opacity=".75"/><rect x="605" y="695" width="18" height="25" fill="#e8c276" opacity=".75"/><rect x="655" y="695" width="18" height="25" fill="#e8c276" opacity=".75"/><rect x="605" y="743" width="18" height="25" fill="#e8c276" opacity=".75"/><rect x="655" y="743" width="18" height="25" fill="#e8c276" opacity=".75"/><rect x="715" y="570" width="105" height="230" fill="#283f49" stroke="#77909a" stroke-width="2"/><path d="M707 570L767 522L828 570Z" fill="#6b3d3c" stroke="#bd7868" stroke-width="3"/><rect x="733" y="600" width="18" height="25" fill="#e8c276" opacity=".75"/><rect x="783" y="600" width="18" height="25" fill="#e8c276" opacity=".75"/><rect x="733" y="648" width="18" height="25" fill="#e8c276" opacity=".75"/><rect x="783" y="648" width="18" height="25" fill="#e8c276" opacity=".75"/><rect x="733" y="696" width="18" height="25" fill="#e8c276" opacity=".75"/><rect x="783" y="696" width="18" height="25" fill="#e8c276" opacity=".75"/><rect x="843" y="523" width="105" height="277" fill="#344d56" stroke="#77909a" stroke-width="2"/><path d="M835 523L895 475L956 523Z" fill="#6b3d3c" stroke="#bd7868" stroke-width="3"/><rect x="861" y="553" width="18" height="25" fill="#e8c276" opacity=".75"/><rect x="911" y="553" width="18" height="25" fill="#e8c276" opacity=".75"/><rect x="861" y="601" width="18" height="25" fill="#e8c276" opacity=".75"/><rect x="911" y="601" width="18" height="25" fill="#e8c276" opacity=".75"/><rect x="861" y="649" width="18" height="25" fill="#e8c276" opacity=".75"/><rect x="911" y="649" width="18" height="25" fill="#e8c276" opacity=".75"/><rect x="971" y="476" width="105" height="324" fill="#283f49" stroke="#77909a" stroke-width="2"/><path d="M963 476L1023 428L1084 476Z" fill="#6b3d3c" stroke="#bd7868" stroke-width="3"/><rect x="989" y="506" width="18" height="25" fill="#e8c276" opacity=".75"/><rect x="1039" y="506" width="18" height="25" fill="#e8c276" opacity=".75"/><rect x="989" y="554" width="18" height="25" fill="#e8c276" opacity=".75"/><rect x="1039" y="554" width="18" height="25" fill="#e8c276" opacity=".75"/><rect x="989" y="602" width="18" height="25" fill="#e8c276" opacity=".75"/><rect x="1039" y="602" width="18" height="25" fill="#e8c276" opacity=".75"/><rect x="1099" y="599" width="105" height="201" fill="#344d56" stroke="#77909a" stroke-width="2"/><path d="M1091 599L1151 551L1212 599Z" fill="#6b3d3c" stroke="#bd7868" stroke-width="3"/><rect x="1117" y="629" width="18" height="25" fill="#e8c276" opacity=".75"/><rect x="1167" y="629" width="18" height="25" fill="#e8c276" opacity=".75"/><rect x="1117" y="677" width="18" height="25" fill="#e8c276" opacity=".75"/><rect x="1167" y="677" width="18" height="25" fill="#e8c276" opacity=".75"/><rect x="1117" y="725" width="18" height="25" fill="#e8c276" opacity=".75"/><rect x="1167" y="725" width="18" height="25" fill="#e8c276" opacity=".75"/><rect x="1227" y="552" width="105" height="248" fill="#283f49" stroke="#77909a" stroke-width="2"/><path d="M1219 552L1279 504L1340 552Z" fill="#6b3d3c" stroke="#bd7868" stroke-width="3"/><rect x="1245" y="582" width="18" height="25" fill="#e8c276" opacity=".75"/><rect x="1295" y="582" width="18" height="25" fill="#e8c276" opacity=".75"/><rect x="1245" y="630" width="18" height="25" fill="#e8c276" opacity=".75"/><rect x="1295" y="630" width="18" height="25" fill="#e8c276" opacity=".75"/><rect x="1245" y="678" width="18" height="25" fill="#e8c276" opacity=".75"/><rect x="1295" y="678" width="18" height="25" fill="#e8c276" opacity=".75"/><rect x="1355" y="505" width="105" height="295" fill="#344d56" stroke="#77909a" stroke-width="2"/><path d="M1347 505L1407 457L1468 505Z" fill="#6b3d3c" stroke="#bd7868" stroke-width="3"/><rect x="1373" y="535" width="18" height="25" fill="#e8c276" opacity=".75"/><rect x="1423" y="535" width="18" height="25" fill="#e8c276" opacity=".75"/><rect x="1373" y="583" width="18" height="25" fill="#e8c276" opacity=".75"/><rect x="1423" y="583" width="18" height="25" fill="#e8c276" opacity=".75"/><rect x="1373" y="631" width="18" height="25" fill="#e8c276" opacity=".75"/><rect x="1423" y="631" width="18" height="25" fill="#e8c276" opacity=".75"/><rect x="1483" y="628" width="105" height="172" fill="#283f49" stroke="#77909a" stroke-width="2"/><path d="M1475 628L1535 580L1596 628Z" fill="#6b3d3c" stroke="#bd7868" stroke-width="3"/><rect x="1501" y="658" width="18" height="25" fill="#e8c276" opacity=".75"/><rect x="1551" y="658" width="18" height="25" fill="#e8c276" opacity=".75"/><rect x="1501" y="706" width="18" height="25" fill="#e8c276" opacity=".75"/><rect x="1551" y="706" width="18" height="25" fill="#e8c276" opacity=".75"/><rect x="1501" y="754" width="18" height="25" fill="#e8c276" opacity=".75"/><rect x="1551" y="754" width="18" height="25" fill="#e8c276" opacity=".75"/><rect x="1611" y="581" width="105" height="219" fill="#344d56" stroke="#77909a" stroke-width="2"/><path d="M1603 581L1663 533L1724 581Z" fill="#6b3d3c" stroke="#bd7868" stroke-width="3"/><rect x="1629" y="611" width="18" height="25" fill="#e8c276" opacity=".75"/><rect x="1679" y="611" width="18" height="25" fill="#e8c276" opacity=".75"/><rect x="1629" y="659" width="18" height="25" fill="#e8c276" opacity=".75"/><rect x="1679" y="659" width="18" height="25" fill="#e8c276" opacity=".75"/><rect x="1629" y="707" width="18" height="25" fill="#e8c276" opacity=".75"/><rect x="1679" y="707" width="18" height="25" fill="#e8c276" opacity=".75"/>
<path d="M60 820L1740 820L1600 935L200 935Z" fill="#a79d87"/>
<path d="M120 935L700 770M1680 935L1090 770" stroke="#ded1b5" stroke-width="5" opacity=".45"/>
<g transform="translate(900 390)" filter="url(#shadow)">
  <path d="M-118 420L-82 0H82L118 420" fill="#41362e" stroke="#d3b37a" stroke-width="8"/>
  <path d="M-150 15H150M-135 100H135M-125 190H125M-120 280H120M-118 365H118" stroke="#d3b37a" stroke-width="9"/>
  <path d="M-82 0L82 420M82 0L-82 420" stroke="#b9915f" stroke-width="7"/>
  <rect x="-104" y="-38" width="208" height="54" fill="#63392f" stroke="#e0c08a" stroke-width="5"/>
  <path d="M-145 420H145" stroke="#e0c08a" stroke-width="14"/>
  <text x="0" y="-60" text-anchor="middle" fill="#f4d487" font-family="Georgia,serif" font-size="25">EXECUTION PLATFORM</text>
</g>
<circle cx="110" cy="820" r="5" fill="#111820"/><path d="M110 825v17" stroke="#111820" stroke-width="5"/><circle cx="193" cy="849" r="5" fill="#111820"/><path d="M193 854v17" stroke="#111820" stroke-width="5"/><circle cx="276" cy="878" r="5" fill="#111820"/><path d="M276 883v17" stroke="#111820" stroke-width="5"/><circle cx="359" cy="907" r="5" fill="#111820"/><path d="M359 912v17" stroke="#111820" stroke-width="5"/><circle cx="442" cy="846" r="5" fill="#111820"/><path d="M442 851v17" stroke="#111820" stroke-width="5"/><circle cx="525" cy="875" r="5" fill="#111820"/><path d="M525 880v17" stroke="#111820" stroke-width="5"/><circle cx="608" cy="904" r="5" fill="#111820"/><path d="M608 909v17" stroke="#111820" stroke-width="5"/><circle cx="691" cy="843" r="5" fill="#111820"/><path d="M691 848v17" stroke="#111820" stroke-width="5"/><circle cx="774" cy="872" r="5" fill="#111820"/><path d="M774 877v17" stroke="#111820" stroke-width="5"/><circle cx="857" cy="901" r="5" fill="#111820"/><path d="M857 906v17" stroke="#111820" stroke-width="5"/><circle cx="940" cy="840" r="5" fill="#111820"/><path d="M940 845v17" stroke="#111820" stroke-width="5"/><circle cx="1023" cy="869" r="5" fill="#111820"/><path d="M1023 874v17" stroke="#111820" stroke-width="5"/><circle cx="1106" cy="898" r="5" fill="#111820"/><path d="M1106 903v17" stroke="#111820" stroke-width="5"/><circle cx="1189" cy="837" r="5" fill="#111820"/><path d="M1189 842v17" stroke="#111820" stroke-width="5"/><circle cx="1272" cy="866" r="5" fill="#111820"/><path d="M1272 871v17" stroke="#111820" stroke-width="5"/><circle cx="1355" cy="895" r="5" fill="#111820"/><path d="M1355 900v17" stroke="#111820" stroke-width="5"/><circle cx="1438" cy="834" r="5" fill="#111820"/><path d="M1438 839v17" stroke="#111820" stroke-width="5"/><circle cx="1521" cy="863" r="5" fill="#111820"/><path d="M1521 868v17" stroke="#111820" stroke-width="5"/><circle cx="1604" cy="892" r="5" fill="#111820"/><path d="M1604 897v17" stroke="#111820" stroke-width="5"/><circle cx="117" cy="831" r="5" fill="#111820"/><path d="M117 836v17" stroke="#111820" stroke-width="5"/><circle cx="200" cy="860" r="5" fill="#111820"/><path d="M200 865v17" stroke="#111820" stroke-width="5"/><circle cx="283" cy="889" r="5" fill="#111820"/><path d="M283 894v17" stroke="#111820" stroke-width="5"/><circle cx="366" cy="828" r="5" fill="#111820"/><path d="M366 833v17" stroke="#111820" stroke-width="5"/><circle cx="449" cy="857" r="5" fill="#111820"/><path d="M449 862v17" stroke="#111820" stroke-width="5"/><circle cx="532" cy="886" r="5" fill="#111820"/><path d="M532 891v17" stroke="#111820" stroke-width="5"/><circle cx="615" cy="825" r="5" fill="#111820"/><path d="M615 830v17" stroke="#111820" stroke-width="5"/><circle cx="698" cy="854" r="5" fill="#111820"/><path d="M698 859v17" stroke="#111820" stroke-width="5"/><circle cx="781" cy="883" r="5" fill="#111820"/><path d="M781 888v17" stroke="#111820" stroke-width="5"/><circle cx="864" cy="822" r="5" fill="#111820"/><path d="M864 827v17" stroke="#111820" stroke-width="5"/><circle cx="947" cy="851" r="5" fill="#111820"/><path d="M947 856v17" stroke="#111820" stroke-width="5"/><circle cx="1030" cy="880" r="5" fill="#111820"/><path d="M1030 885v17" stroke="#111820" stroke-width="5"/><circle cx="1113" cy="909" r="5" fill="#111820"/><path d="M1113 914v17" stroke="#111820" stroke-width="5"/><circle cx="1196" cy="848" r="5" fill="#111820"/><path d="M1196 853v17" stroke="#111820" stroke-width="5"/><circle cx="1279" cy="877" r="5" fill="#111820"/><path d="M1279 882v17" stroke="#111820" stroke-width="5"/><circle cx="1362" cy="906" r="5" fill="#111820"/><path d="M1362 911v17" stroke="#111820" stroke-width="5"/><circle cx="1445" cy="845" r="5" fill="#111820"/><path d="M1445 850v17" stroke="#111820" stroke-width="5"/><circle cx="1528" cy="874" r="5" fill="#111820"/><path d="M1528 879v17" stroke="#111820" stroke-width="5"/><circle cx="1611" cy="903" r="5" fill="#111820"/><path d="M1611 908v17" stroke="#111820" stroke-width="5"/><circle cx="124" cy="842" r="5" fill="#111820"/><path d="M124 847v17" stroke="#111820" stroke-width="5"/><circle cx="207" cy="871" r="5" fill="#111820"/><path d="M207 876v17" stroke="#111820" stroke-width="5"/><circle cx="290" cy="900" r="5" fill="#111820"/><path d="M290 905v17" stroke="#111820" stroke-width="5"/><circle cx="373" cy="839" r="5" fill="#111820"/><path d="M373 844v17" stroke="#111820" stroke-width="5"/><circle cx="456" cy="868" r="5" fill="#111820"/><path d="M456 873v17" stroke="#111820" stroke-width="5"/><circle cx="539" cy="897" r="5" fill="#111820"/><path d="M539 902v17" stroke="#111820" stroke-width="5"/><circle cx="622" cy="836" r="5" fill="#111820"/><path d="M622 841v17" stroke="#111820" stroke-width="5"/><circle cx="705" cy="865" r="5" fill="#111820"/><path d="M705 870v17" stroke="#111820" stroke-width="5"/><circle cx="788" cy="894" r="5" fill="#111820"/><path d="M788 899v17" stroke="#111820" stroke-width="5"/><circle cx="871" cy="833" r="5" fill="#111820"/><path d="M871 838v17" stroke="#111820" stroke-width="5"/><circle cx="954" cy="862" r="5" fill="#111820"/><path d="M954 867v17" stroke="#111820" stroke-width="5"/><circle cx="1037" cy="891" r="5" fill="#111820"/><path d="M1037 896v17" stroke="#111820" stroke-width="5"/><circle cx="1120" cy="830" r="5" fill="#111820"/><path d="M1120 835v17" stroke="#111820" stroke-width="5"/><circle cx="1203" cy="859" r="5" fill="#111820"/><path d="M1203 864v17" stroke="#111820" stroke-width="5"/><circle cx="1286" cy="888" r="5" fill="#111820"/><path d="M1286 893v17" stroke="#111820" stroke-width="5"/><circle cx="1369" cy="827" r="5" fill="#111820"/><path d="M1369 832v17" stroke="#111820" stroke-width="5"/><circle cx="1452" cy="856" r="5" fill="#111820"/><path d="M1452 861v17" stroke="#111820" stroke-width="5"/><circle cx="1535" cy="885" r="5" fill="#111820"/><path d="M1535 890v17" stroke="#111820" stroke-width="5"/><circle cx="1618" cy="824" r="5" fill="#111820"/><path d="M1618 829v17" stroke="#111820" stroke-width="5"/><circle cx="131" cy="853" r="5" fill="#111820"/><path d="M131 858v17" stroke="#111820" stroke-width="5"/><circle cx="214" cy="882" r="5" fill="#111820"/><path d="M214 887v17" stroke="#111820" stroke-width="5"/><circle cx="297" cy="821" r="5" fill="#111820"/><path d="M297 826v17" stroke="#111820" stroke-width="5"/><circle cx="380" cy="850" r="5" fill="#111820"/><path d="M380 855v17" stroke="#111820" stroke-width="5"/><circle cx="463" cy="879" r="5" fill="#111820"/><path d="M463 884v17" stroke="#111820" stroke-width="5"/><circle cx="546" cy="908" r="5" fill="#111820"/><path d="M546 913v17" stroke="#111820" stroke-width="5"/><circle cx="629" cy="847" r="5" fill="#111820"/><path d="M629 852v17" stroke="#111820" stroke-width="5"/><circle cx="712" cy="876" r="5" fill="#111820"/><path d="M712 881v17" stroke="#111820" stroke-width="5"/>
<rect x="105" y="192" width="350" height="154" rx="16" fill="#08151c" stroke="#786e5b"/>
<text x="132" y="230" fill="#f1c86a" font-family="Arial,sans-serif" font-size="17">CHAPTER 1 — HISTORICAL STATE</text>
<text x="132" y="267" fill="#e3eaE8" font-family="Georgia,serif" font-size="23">Roger execution tableau</text>
<text x="132" y="301" fill="#9db5bb" font-family="Arial,sans-serif" font-size="16">crowd • wind • scaffold occupancy</text>
<rect x="1345" y="704" width="335" height="154" rx="16" fill="#08151c" stroke="#607c8a"/>
<text x="1372" y="742" fill="#84d7e6" font-family="Arial,sans-serif" font-size="17">LATER — GATED STORM STATE</text>
<text x="1372" y="779" fill="#e3eaE8" font-family="Georgia,serif" font-size="23">Mirrored near-execution</text>
<text x="1372" y="813" fill="#9db5bb" font-family="Arial,sans-serif" font-size="16">rain • lightning • crowd panic</text>
<rect x="60" y="962" width="1680" height="102" rx="18" fill="#07141d" stroke="#315363"/>
<text x="88" y="998" fill="#f1c86a" font-family="Arial,sans-serif" font-size="16">BLENDER RULE — one permanent scaffold, three switchable states</text>
<text x="88" y="1027" fill="#b8cdd1" font-family="Arial,sans-serif" font-size="15">Free roam: empty landmark  •  Chapter 1: Roger history  •  Later verified gate: storm mirror</text>
</svg>
