<svg xmlns="http://www.w3.org/2000/svg" width="1800" height="1100" viewBox="0 0 1800 1100">
<title>SABAODY — NOT ISLANDS, A MANGROVE NETWORK</title>
<defs>
  <linearGradient id="bg" x1="0" y1="0" x2="0" y2="1"><stop stop-color="#102a38"/><stop offset="1" stop-color="#050d14"/></linearGradient>
  <linearGradient id="sea" x1="0" y1="0" x2="0" y2="1"><stop stop-color="#1b748e"/><stop offset="1" stop-color="#092938"/></linearGradient>
  <linearGradient id="stone" x1="0" y1="0" x2="1" y2="1"><stop stop-color="#e0d0b3"/><stop offset="1" stop-color="#745f55"/></linearGradient>
  <linearGradient id="cloud" x1="0" y1="0" x2="0" y2="1"><stop stop-color="#fffde8"/><stop offset="1" stop-color="#9ed8e5"/></linearGradient>
  <filter id="glow"><feGaussianBlur stdDeviation="9" result="b"/><feMerge><feMergeNode in="b"/><feMergeNode in="SourceGraphic"/></feMerge></filter>
  <filter id="shadow"><feDropShadow dx="0" dy="10" stdDeviation="10" flood-opacity=".35"/></filter>
  <marker id="arrow" viewBox="0 0 10 10" refX="8" refY="5" markerWidth="7" markerHeight="7" orient="auto"><path d="M0 0L10 5L0 10z" fill="#75dfef"/></marker>
</defs>
<rect width="1800" height="1100" fill="url(#bg)"/>
<circle cx="1510" cy="-60" r="390" fill="#91dfb0" opacity=".06"/>
<text x="64" y="75" fill="#fff7df" font-family="Georgia,serif" font-size="45">SABAODY — NOT ISLANDS, A MANGROVE NETWORK</text>
<text x="66" y="114" fill="#95b8c1" font-family="Arial,sans-serif" font-size="19">System correction board • 79 numbered Yarukiman groves / bridges / bubbles / nested landmarks</text>
<rect x="1500" y="46" width="238" height="54" rx="27" fill="#0a1720" stroke="#91dfb0" stroke-width="2"/>
<text x="1619" y="80" text-anchor="middle" fill="#91dfb0" font-family="Arial,sans-serif" font-size="17">PRIORITY 01</text>

<rect x="58" y="155" width="1684" height="780" rx="24" fill="#082933" stroke="#335865"/>
<ellipse cx="920" cy="560" rx="520" ry="360" fill="#102d2d" stroke="#416b61" stroke-width="8"/>
<path d="M810 690Q750 555 825 400Q900 260 1000 405Q1075 560 1015 690" fill="#4d4033" stroke="#a48762" stroke-width="32"/>
<path d="M820 675Q720 710 615 780M845 680Q790 760 760 860M980 680Q1060 750 1170 792M1005 665Q1110 685 1275 705" fill="none" stroke="#795f43" stroke-width="28" stroke-linecap="round"/>
<path d="M1110.0 535.0Q1104.3 545.4 1098.5 579.8" fill="none" stroke="#9bc3b6" stroke-width="3" opacity=".35"/><path d="M1098.5 579.8Q1082.0 587.6 1065.5 619.3" fill="none" stroke="#9bc3b6" stroke-width="3" opacity=".35"/><path d="M1065.5 619.3Q1040.3 621.9 1015.0 648.5" fill="none" stroke="#9bc3b6" stroke-width="3" opacity=".35"/><path d="M1015.0 648.5Q984.0 644.3 953.0 664.1" fill="none" stroke="#9bc3b6" stroke-width="3" opacity=".35"/><path d="M953.0 664.1Q920.0 652.1 887.0 664.1" fill="none" stroke="#9bc3b6" stroke-width="3" opacity=".35"/><path d="M887.0 664.1Q856.0 644.3 825.0 648.5" fill="none" stroke="#9bc3b6" stroke-width="3" opacity=".35"/><path d="M825.0 648.5Q799.7 621.9 774.5 619.3" fill="none" stroke="#9bc3b6" stroke-width="3" opacity=".35"/><path d="M774.5 619.3Q758.0 587.6 741.5 579.8" fill="none" stroke="#9bc3b6" stroke-width="3" opacity=".35"/><path d="M741.5 579.8Q735.7 545.4 730.0 535.0" fill="none" stroke="#9bc3b6" stroke-width="3" opacity=".35"/><path d="M730.0 535.0Q735.7 500.6 741.5 490.2" fill="none" stroke="#9bc3b6" stroke-width="3" opacity=".35"/><path d="M741.5 490.2Q758.0 458.4 774.5 450.7" fill="none" stroke="#9bc3b6" stroke-width="3" opacity=".35"/><path d="M774.5 450.7Q799.7 424.1 825.0 421.5" fill="none" stroke="#9bc3b6" stroke-width="3" opacity=".35"/><path d="M825.0 421.5Q856.0 401.7 887.0 405.9" fill="none" stroke="#9bc3b6" stroke-width="3" opacity=".35"/><path d="M887.0 405.9Q920.0 393.9 953.0 405.9" fill="none" stroke="#9bc3b6" stroke-width="3" opacity=".35"/><path d="M953.0 405.9Q984.0 401.7 1015.0 421.5" fill="none" stroke="#9bc3b6" stroke-width="3" opacity=".35"/><path d="M1015.0 421.5Q1040.3 424.1 1065.5 450.7" fill="none" stroke="#9bc3b6" stroke-width="3" opacity=".35"/><path d="M1065.5 450.7Q1082.0 458.4 1098.5 490.2" fill="none" stroke="#9bc3b6" stroke-width="3" opacity=".35"/><path d="M1228.7 554.2Q1221.4 566.5 1214.0 602.8" fill="none" stroke="#9bc3b6" stroke-width="3" opacity=".35"/><path d="M1214.0 602.8Q1198.7 613.3 1183.4 647.8" fill="none" stroke="#9bc3b6" stroke-width="3" opacity=".35"/><path d="M1183.4 647.8Q1161.0 655.2 1138.6 686.7" fill="none" stroke="#9bc3b6" stroke-width="3" opacity=".35"/><path d="M1138.6 686.7Q1110.3 690.0 1082.0 717.4" fill="none" stroke="#9bc3b6" stroke-width="3" opacity=".35"/><path d="M1082.0 717.4Q1049.4 715.8 1016.7 738.2" fill="none" stroke="#9bc3b6" stroke-width="3" opacity=".35"/><path d="M1016.7 738.2Q981.4 731.2 946.2 748.1" fill="none" stroke="#9bc3b6" stroke-width="3" opacity=".35"/><path d="M946.2 748.1Q910.2 735.3 874.2 746.6" fill="none" stroke="#9bc3b6" stroke-width="3" opacity=".35"/><path d="M874.2 746.6Q839.5 728.1 804.8 733.6" fill="none" stroke="#9bc3b6" stroke-width="3" opacity=".35"/><path d="M804.8 733.6Q773.1 709.7 741.5 709.9" fill="none" stroke="#9bc3b6" stroke-width="3" opacity=".35"/><path d="M741.5 709.9Q714.7 681.3 687.9 676.8" fill="none" stroke="#9bc3b6" stroke-width="3" opacity=".35"/><path d="M687.9 676.8Q667.3 644.4 646.7 636.0" fill="none" stroke="#9bc3b6" stroke-width="3" opacity=".35"/><path d="M646.7 636.0Q633.5 600.9 620.3 589.8" fill="none" stroke="#9bc3b6" stroke-width="3" opacity=".35"/><path d="M620.3 589.8Q615.2 553.2 610.1 540.6" fill="none" stroke="#9bc3b6" stroke-width="3" opacity=".35"/><path d="M610.1 540.6Q613.3 503.9 616.6 491.2" fill="none" stroke="#9bc3b6" stroke-width="3" opacity=".35"/><path d="M616.6 491.2Q628.0 455.6 639.4 444.1" fill="none" stroke="#9bc3b6" stroke-width="3" opacity=".35"/><path d="M639.4 444.1Q658.4 411.0 677.4 401.9" fill="none" stroke="#9bc3b6" stroke-width="3" opacity=".35"/><path d="M677.4 401.9Q702.9 372.4 728.4 366.9" fill="none" stroke="#9bc3b6" stroke-width="3" opacity=".35"/><path d="M728.4 366.9Q759.1 341.9 789.8 340.9" fill="none" stroke="#9bc3b6" stroke-width="3" opacity=".35"/><path d="M789.8 340.9Q823.9 321.1 858.1 325.4" fill="none" stroke="#9bc3b6" stroke-width="3" opacity=".35"/><path d="M858.1 325.4Q894.0 311.3 929.9 321.2" fill="none" stroke="#9bc3b6" stroke-width="3" opacity=".35"/><path d="M929.9 321.2Q965.5 312.9 1001.1 328.5" fill="none" stroke="#9bc3b6" stroke-width="3" opacity=".35"/><path d="M1001.1 328.5Q1034.5 325.8 1067.9 347.0" fill="none" stroke="#9bc3b6" stroke-width="3" opacity=".35"/><path d="M1067.9 347.0Q1097.3 349.3 1126.7 375.6" fill="none" stroke="#9bc3b6" stroke-width="3" opacity=".35"/><path d="M1126.7 375.6Q1150.6 382.2 1174.4 412.8" fill="none" stroke="#9bc3b6" stroke-width="3" opacity=".35"/><path d="M1174.4 412.8Q1191.4 422.7 1208.4 456.6" fill="none" stroke="#9bc3b6" stroke-width="3" opacity=".35"/><path d="M1208.4 456.6Q1217.6 468.6 1226.8 504.6" fill="none" stroke="#9bc3b6" stroke-width="3" opacity=".35"/><path d="M1343.1 588.1Q1332.4 602.5 1321.7 640.9" fill="none" stroke="#9bc3b6" stroke-width="3" opacity=".35"/><path d="M1321.7 640.9Q1304.2 653.4 1286.7 690.0" fill="none" stroke="#9bc3b6" stroke-width="3" opacity=".35"/><path d="M1286.7 690.0Q1262.9 699.9 1239.2 733.8" fill="none" stroke="#9bc3b6" stroke-width="3" opacity=".35"/><path d="M1239.2 733.8Q1210.0 740.4 1180.8 770.9" fill="none" stroke="#9bc3b6" stroke-width="3" opacity=".35"/><path d="M1180.8 770.9Q1147.1 773.4 1113.5 800.0" fill="none" stroke="#9bc3b6" stroke-width="3" opacity=".35"/><path d="M1113.5 800.0Q1076.6 798.0 1039.7 820.0" fill="none" stroke="#9bc3b6" stroke-width="3" opacity=".35"/><path d="M1039.7 820.0Q1000.7 813.1 961.7 830.3" fill="none" stroke="#9bc3b6" stroke-width="3" opacity=".35"/><path d="M961.7 830.3Q922.1 818.4 882.4 830.6" fill="none" stroke="#9bc3b6" stroke-width="3" opacity=".35"/><path d="M882.4 830.6Q843.3 813.7 804.3 820.8" fill="none" stroke="#9bc3b6" stroke-width="3" opacity=".35"/><path d="M804.3 820.8Q767.2 799.0 730.2 801.2" fill="none" stroke="#9bc3b6" stroke-width="3" opacity=".35"/><path d="M730.2 801.2Q696.3 774.9 662.5 772.6" fill="none" stroke="#9bc3b6" stroke-width="3" opacity=".35"/><path d="M662.5 772.6Q633.1 742.3 603.6 735.9" fill="none" stroke="#9bc3b6" stroke-width="3" opacity=".35"/><path d="M603.6 735.9Q579.6 702.2 555.5 692.4" fill="none" stroke="#9bc3b6" stroke-width="3" opacity=".35"/><path d="M555.5 692.4Q537.6 656.0 519.8 643.5" fill="none" stroke="#9bc3b6" stroke-width="3" opacity=".35"/><path d="M519.8 643.5Q508.7 605.2 497.7 590.9" fill="none" stroke="#9bc3b6" stroke-width="3" opacity=".35"/><path d="M497.7 590.9Q493.9 551.7 490.0 536.4" fill="none" stroke="#9bc3b6" stroke-width="3" opacity=".35"/><path d="M490.0 536.4Q493.5 497.2 496.9 481.9" fill="none" stroke="#9bc3b6" stroke-width="3" opacity=".35"/><path d="M496.9 481.9Q507.6 443.5 518.3 429.1" fill="none" stroke="#9bc3b6" stroke-width="3" opacity=".35"/><path d="M518.3 429.1Q535.8 392.6 553.3 380.0" fill="none" stroke="#9bc3b6" stroke-width="3" opacity=".35"/><path d="M553.3 380.0Q577.1 346.1 600.8 336.2" fill="none" stroke="#9bc3b6" stroke-width="3" opacity=".35"/><path d="M600.8 336.2Q630.0 305.6 659.2 299.1" fill="none" stroke="#9bc3b6" stroke-width="3" opacity=".35"/><path d="M659.2 299.1Q692.9 272.6 726.5 270.0" fill="none" stroke="#9bc3b6" stroke-width="3" opacity=".35"/><path d="M726.5 270.0Q763.4 248.0 800.3 250.0" fill="none" stroke="#9bc3b6" stroke-width="3" opacity=".35"/><path d="M800.3 250.0Q839.3 232.9 878.3 239.7" fill="none" stroke="#9bc3b6" stroke-width="3" opacity=".35"/><path d="M878.3 239.7Q917.9 227.6 957.6 239.4" fill="none" stroke="#9bc3b6" stroke-width="3" opacity=".35"/><path d="M957.6 239.4Q996.7 232.3 1035.7 249.2" fill="none" stroke="#9bc3b6" stroke-width="3" opacity=".35"/><path d="M1035.7 249.2Q1072.8 247.0 1109.8 268.8" fill="none" stroke="#9bc3b6" stroke-width="3" opacity=".35"/><path d="M1109.8 268.8Q1143.7 271.1 1177.5 297.4" fill="none" stroke="#9bc3b6" stroke-width="3" opacity=".35"/><path d="M1177.5 297.4Q1206.9 303.7 1236.4 334.1" fill="none" stroke="#9bc3b6" stroke-width="3" opacity=".35"/><path d="M1236.4 334.1Q1260.4 343.8 1284.5 377.6" fill="none" stroke="#9bc3b6" stroke-width="3" opacity=".35"/><path d="M1284.5 377.6Q1302.4 390.0 1320.2 426.5" fill="none" stroke="#9bc3b6" stroke-width="3" opacity=".35"/><path d="M1320.2 426.5Q1331.3 440.8 1342.3 479.1" fill="none" stroke="#9bc3b6" stroke-width="3" opacity=".35"/><path d="M1342.3 479.1Q1346.1 494.3 1350.0 533.6" fill="none" stroke="#9bc3b6" stroke-width="3" opacity=".35"/>
<circle cx="1110.0" cy="535.0" r="17" fill="#8ecb8a" stroke="#dffff0" stroke-width="2"/><text x="1110.0" y="540.0" text-anchor="middle" fill="#082029" font-family="Arial,sans-serif" font-size="10">1</text><circle cx="1098.5" cy="579.8" r="17" fill="#8ecb8a" stroke="#dffff0" stroke-width="2"/><text x="1098.5" y="584.8" text-anchor="middle" fill="#082029" font-family="Arial,sans-serif" font-size="10">2</text><circle cx="1065.5" cy="619.3" r="17" fill="#8ecb8a" stroke="#dffff0" stroke-width="2"/><text x="1065.5" y="624.3" text-anchor="middle" fill="#082029" font-family="Arial,sans-serif" font-size="10">3</text><circle cx="1015.0" cy="648.5" r="17" fill="#8ecb8a" stroke="#dffff0" stroke-width="2"/><text x="1015.0" y="653.5" text-anchor="middle" fill="#082029" font-family="Arial,sans-serif" font-size="10">4</text><circle cx="953.0" cy="664.1" r="17" fill="#8ecb8a" stroke="#dffff0" stroke-width="2"/><text x="953.0" y="669.1" text-anchor="middle" fill="#082029" font-family="Arial,sans-serif" font-size="10">5</text><circle cx="887.0" cy="664.1" r="17" fill="#8ecb8a" stroke="#dffff0" stroke-width="2"/><text x="887.0" y="669.1" text-anchor="middle" fill="#082029" font-family="Arial,sans-serif" font-size="10">6</text><circle cx="825.0" cy="648.5" r="17" fill="#8ecb8a" stroke="#dffff0" stroke-width="2"/><text x="825.0" y="653.5" text-anchor="middle" fill="#082029" font-family="Arial,sans-serif" font-size="10">7</text><circle cx="774.5" cy="619.3" r="17" fill="#8ecb8a" stroke="#dffff0" stroke-width="2"/><text x="774.5" y="624.3" text-anchor="middle" fill="#082029" font-family="Arial,sans-serif" font-size="10">8</text><circle cx="741.5" cy="579.8" r="17" fill="#8ecb8a" stroke="#dffff0" stroke-width="2"/><text x="741.5" y="584.8" text-anchor="middle" fill="#082029" font-family="Arial,sans-serif" font-size="10">9</text><circle cx="730.0" cy="535.0" r="17" fill="#8ecb8a" stroke="#dffff0" stroke-width="2"/><text x="730.0" y="540.0" text-anchor="middle" fill="#082029" font-family="Arial,sans-serif" font-size="10">10</text><circle cx="741.5" cy="490.2" r="17" fill="#8ecb8a" stroke="#dffff0" stroke-width="2"/><text x="741.5" y="495.2" text-anchor="middle" fill="#082029" font-family="Arial,sans-serif" font-size="10">11</text><circle cx="774.5" cy="450.7" r="17" fill="#8ecb8a" stroke="#dffff0" stroke-width="2"/><text x="774.5" y="455.7" text-anchor="middle" fill="#082029" font-family="Arial,sans-serif" font-size="10">12</text><circle cx="825.0" cy="421.5" r="17" fill="#8ecb8a" stroke="#dffff0" stroke-width="2"/><text x="825.0" y="426.5" text-anchor="middle" fill="#082029" font-family="Arial,sans-serif" font-size="10">13</text><circle cx="887.0" cy="405.9" r="17" fill="#8ecb8a" stroke="#dffff0" stroke-width="2"/><text x="887.0" y="410.9" text-anchor="middle" fill="#082029" font-family="Arial,sans-serif" font-size="10">14</text><circle cx="953.0" cy="405.9" r="17" fill="#8ecb8a" stroke="#dffff0" stroke-width="2"/><text x="953.0" y="410.9" text-anchor="middle" fill="#082029" font-family="Arial,sans-serif" font-size="10">15</text><circle cx="1015.0" cy="421.5" r="17" fill="#8ecb8a" stroke="#dffff0" stroke-width="2"/><text x="1015.0" y="426.5" text-anchor="middle" fill="#082029" font-family="Arial,sans-serif" font-size="10">16</text><circle cx="1065.5" cy="450.7" r="17" fill="#8ecb8a" stroke="#dffff0" stroke-width="2"/><text x="1065.5" y="455.7" text-anchor="middle" fill="#082029" font-family="Arial,sans-serif" font-size="10">17</text><circle cx="1098.5" cy="490.2" r="17" fill="#8ecb8a" stroke="#dffff0" stroke-width="2"/><text x="1098.5" y="495.2" text-anchor="middle" fill="#082029" font-family="Arial,sans-serif" font-size="10">18</text><circle cx="1228.7" cy="554.2" r="17" fill="#72b7a4" stroke="#dffff0" stroke-width="2"/><text x="1228.7" y="559.2" text-anchor="middle" fill="#082029" font-family="Arial,sans-serif" font-size="10">19</text><circle cx="1214.0" cy="602.8" r="17" fill="#72b7a4" stroke="#dffff0" stroke-width="2"/><text x="1214.0" y="607.8" text-anchor="middle" fill="#082029" font-family="Arial,sans-serif" font-size="10">20</text><circle cx="1183.4" cy="647.8" r="17" fill="#72b7a4" stroke="#dffff0" stroke-width="2"/><text x="1183.4" y="652.8" text-anchor="middle" fill="#082029" font-family="Arial,sans-serif" font-size="10">21</text><circle cx="1138.6" cy="686.7" r="17" fill="#72b7a4" stroke="#dffff0" stroke-width="2"/><text x="1138.6" y="691.7" text-anchor="middle" fill="#082029" font-family="Arial,sans-serif" font-size="10">22</text><circle cx="1082.0" cy="717.4" r="17" fill="#72b7a4" stroke="#dffff0" stroke-width="2"/><text x="1082.0" y="722.4" text-anchor="middle" fill="#082029" font-family="Arial,sans-serif" font-size="10">23</text><circle cx="1016.7" cy="738.2" r="17" fill="#72b7a4" stroke="#dffff0" stroke-width="2"/><text x="1016.7" y="743.2" text-anchor="middle" fill="#082029" font-family="Arial,sans-serif" font-size="10">24</text><circle cx="946.2" cy="748.1" r="17" fill="#72b7a4" stroke="#dffff0" stroke-width="2"/><text x="946.2" y="753.1" text-anchor="middle" fill="#082029" font-family="Arial,sans-serif" font-size="10">25</text><circle cx="874.2" cy="746.6" r="17" fill="#72b7a4" stroke="#dffff0" stroke-width="2"/><text x="874.2" y="751.6" text-anchor="middle" fill="#082029" font-family="Arial,sans-serif" font-size="10">26</text><circle cx="804.8" cy="733.6" r="17" fill="#72b7a4" stroke="#dffff0" stroke-width="2"/><text x="804.8" y="738.6" text-anchor="middle" fill="#082029" font-family="Arial,sans-serif" font-size="10">27</text><circle cx="741.5" cy="709.9" r="17" fill="#72b7a4" stroke="#dffff0" stroke-width="2"/><text x="741.5" y="714.9" text-anchor="middle" fill="#082029" font-family="Arial,sans-serif" font-size="10">28</text><circle cx="687.9" cy="676.8" r="17" fill="#72b7a4" stroke="#dffff0" stroke-width="2"/><text x="687.9" y="681.8" text-anchor="middle" fill="#082029" font-family="Arial,sans-serif" font-size="10">29</text><circle cx="646.7" cy="636.0" r="17" fill="#72b7a4" stroke="#dffff0" stroke-width="2"/><text x="646.7" y="641.0" text-anchor="middle" fill="#082029" font-family="Arial,sans-serif" font-size="10">30</text><circle cx="620.3" cy="589.8" r="17" fill="#72b7a4" stroke="#dffff0" stroke-width="2"/><text x="620.3" y="594.8" text-anchor="middle" fill="#082029" font-family="Arial,sans-serif" font-size="10">31</text><circle cx="610.1" cy="540.6" r="17" fill="#72b7a4" stroke="#dffff0" stroke-width="2"/><text x="610.1" y="545.6" text-anchor="middle" fill="#082029" font-family="Arial,sans-serif" font-size="10">32</text><circle cx="616.6" cy="491.2" r="17" fill="#72b7a4" stroke="#dffff0" stroke-width="2"/><text x="616.6" y="496.2" text-anchor="middle" fill="#082029" font-family="Arial,sans-serif" font-size="10">33</text><circle cx="639.4" cy="444.1" r="17" fill="#72b7a4" stroke="#dffff0" stroke-width="2"/><text x="639.4" y="449.1" text-anchor="middle" fill="#082029" font-family="Arial,sans-serif" font-size="10">34</text><circle cx="677.4" cy="401.9" r="17" fill="#72b7a4" stroke="#dffff0" stroke-width="2"/><text x="677.4" y="406.9" text-anchor="middle" fill="#082029" font-family="Arial,sans-serif" font-size="10">35</text><circle cx="728.4" cy="366.9" r="17" fill="#72b7a4" stroke="#dffff0" stroke-width="2"/><text x="728.4" y="371.9" text-anchor="middle" fill="#082029" font-family="Arial,sans-serif" font-size="10">36</text><circle cx="789.8" cy="340.9" r="17" fill="#72b7a4" stroke="#dffff0" stroke-width="2"/><text x="789.8" y="345.9" text-anchor="middle" fill="#082029" font-family="Arial,sans-serif" font-size="10">37</text><circle cx="858.1" cy="325.4" r="17" fill="#72b7a4" stroke="#dffff0" stroke-width="2"/><text x="858.1" y="330.4" text-anchor="middle" fill="#082029" font-family="Arial,sans-serif" font-size="10">38</text><circle cx="929.9" cy="321.2" r="17" fill="#72b7a4" stroke="#dffff0" stroke-width="2"/><text x="929.9" y="326.2" text-anchor="middle" fill="#082029" font-family="Arial,sans-serif" font-size="10">39</text><circle cx="1001.1" cy="328.5" r="17" fill="#72b7a4" stroke="#dffff0" stroke-width="2"/><text x="1001.1" y="333.5" text-anchor="middle" fill="#082029" font-family="Arial,sans-serif" font-size="10">40</text><circle cx="1067.9" cy="347.0" r="17" fill="#72b7a4" stroke="#dffff0" stroke-width="2"/><text x="1067.9" y="352.0" text-anchor="middle" fill="#082029" font-family="Arial,sans-serif" font-size="10">41</text><circle cx="1126.7" cy="375.6" r="17" fill="#72b7a4" stroke="#dffff0" stroke-width="2"/><text x="1126.7" y="380.6" text-anchor="middle" fill="#082029" font-family="Arial,sans-serif" font-size="10">42</text><circle cx="1174.4" cy="412.8" r="17" fill="#72b7a4" stroke="#dffff0" stroke-width="2"/><text x="1174.4" y="417.8" text-anchor="middle" fill="#082029" font-family="Arial,sans-serif" font-size="10">43</text><circle cx="1208.4" cy="456.6" r="17" fill="#72b7a4" stroke="#dffff0" stroke-width="2"/><text x="1208.4" y="461.6" text-anchor="middle" fill="#082029" font-family="Arial,sans-serif" font-size="10">44</text><circle cx="1226.8" cy="504.6" r="17" fill="#72b7a4" stroke="#dffff0" stroke-width="2"/><text x="1226.8" y="509.6" text-anchor="middle" fill="#082029" font-family="Arial,sans-serif" font-size="10">45</text><circle cx="1343.1" cy="588.1" r="17" fill="#4c948f" stroke="#dffff0" stroke-width="2"/><text x="1343.1" y="593.1" text-anchor="middle" fill="#082029" font-family="Arial,sans-serif" font-size="10">46</text><circle cx="1321.7" cy="640.9" r="17" fill="#4c948f" stroke="#dffff0" stroke-width="2"/><text x="1321.7" y="645.9" text-anchor="middle" fill="#082029" font-family="Arial,sans-serif" font-size="10">47</text><circle cx="1286.7" cy="690.0" r="17" fill="#4c948f" stroke="#dffff0" stroke-width="2"/><text x="1286.7" y="695.0" text-anchor="middle" fill="#082029" font-family="Arial,sans-serif" font-size="10">48</text><circle cx="1239.2" cy="733.8" r="17" fill="#4c948f" stroke="#dffff0" stroke-width="2"/><text x="1239.2" y="738.8" text-anchor="middle" fill="#082029" font-family="Arial,sans-serif" font-size="10">49</text><circle cx="1180.8" cy="770.9" r="17" fill="#4c948f" stroke="#dffff0" stroke-width="2"/><text x="1180.8" y="775.9" text-anchor="middle" fill="#082029" font-family="Arial,sans-serif" font-size="10">50</text><circle cx="1113.5" cy="800.0" r="17" fill="#4c948f" stroke="#dffff0" stroke-width="2"/><text x="1113.5" y="805.0" text-anchor="middle" fill="#082029" font-family="Arial,sans-serif" font-size="10">51</text><circle cx="1039.7" cy="820.0" r="17" fill="#4c948f" stroke="#dffff0" stroke-width="2"/><text x="1039.7" y="825.0" text-anchor="middle" fill="#082029" font-family="Arial,sans-serif" font-size="10">52</text><circle cx="961.7" cy="830.3" r="17" fill="#4c948f" stroke="#dffff0" stroke-width="2"/><text x="961.7" y="835.3" text-anchor="middle" fill="#082029" font-family="Arial,sans-serif" font-size="10">53</text><circle cx="882.4" cy="830.6" r="17" fill="#4c948f" stroke="#dffff0" stroke-width="2"/><text x="882.4" y="835.6" text-anchor="middle" fill="#082029" font-family="Arial,sans-serif" font-size="10">54</text><circle cx="804.3" cy="820.8" r="17" fill="#4c948f" stroke="#dffff0" stroke-width="2"/><text x="804.3" y="825.8" text-anchor="middle" fill="#082029" font-family="Arial,sans-serif" font-size="10">55</text><circle cx="730.2" cy="801.2" r="17" fill="#4c948f" stroke="#dffff0" stroke-width="2"/><text x="730.2" y="806.2" text-anchor="middle" fill="#082029" font-family="Arial,sans-serif" font-size="10">56</text><circle cx="662.5" cy="772.6" r="17" fill="#4c948f" stroke="#dffff0" stroke-width="2"/><text x="662.5" y="777.6" text-anchor="middle" fill="#082029" font-family="Arial,sans-serif" font-size="10">57</text><circle cx="603.6" cy="735.9" r="17" fill="#4c948f" stroke="#dffff0" stroke-width="2"/><text x="603.6" y="740.9" text-anchor="middle" fill="#082029" font-family="Arial,sans-serif" font-size="10">58</text><circle cx="555.5" cy="692.4" r="17" fill="#4c948f" stroke="#dffff0" stroke-width="2"/><text x="555.5" y="697.4" text-anchor="middle" fill="#082029" font-family="Arial,sans-serif" font-size="10">59</text><circle cx="519.8" cy="643.5" r="17" fill="#4c948f" stroke="#dffff0" stroke-width="2"/><text x="519.8" y="648.5" text-anchor="middle" fill="#082029" font-family="Arial,sans-serif" font-size="10">60</text><circle cx="497.7" cy="590.9" r="17" fill="#4c948f" stroke="#dffff0" stroke-width="2"/><text x="497.7" y="595.9" text-anchor="middle" fill="#082029" font-family="Arial,sans-serif" font-size="10">61</text><circle cx="490.0" cy="536.4" r="17" fill="#4c948f" stroke="#dffff0" stroke-width="2"/><text x="490.0" y="541.4" text-anchor="middle" fill="#082029" font-family="Arial,sans-serif" font-size="10">62</text><circle cx="496.9" cy="481.9" r="17" fill="#4c948f" stroke="#dffff0" stroke-width="2"/><text x="496.9" y="486.9" text-anchor="middle" fill="#082029" font-family="Arial,sans-serif" font-size="10">63</text><circle cx="518.3" cy="429.1" r="17" fill="#4c948f" stroke="#dffff0" stroke-width="2"/><text x="518.3" y="434.1" text-anchor="middle" fill="#082029" font-family="Arial,sans-serif" font-size="10">64</text><circle cx="553.3" cy="380.0" r="17" fill="#4c948f" stroke="#dffff0" stroke-width="2"/><text x="553.3" y="385.0" text-anchor="middle" fill="#082029" font-family="Arial,sans-serif" font-size="10">65</text><circle cx="600.8" cy="336.2" r="17" fill="#4c948f" stroke="#dffff0" stroke-width="2"/><text x="600.8" y="341.2" text-anchor="middle" fill="#082029" font-family="Arial,sans-serif" font-size="10">66</text><circle cx="659.2" cy="299.1" r="17" fill="#4c948f" stroke="#dffff0" stroke-width="2"/><text x="659.2" y="304.1" text-anchor="middle" fill="#082029" font-family="Arial,sans-serif" font-size="10">67</text><circle cx="726.5" cy="270.0" r="17" fill="#4c948f" stroke="#dffff0" stroke-width="2"/><text x="726.5" y="275.0" text-anchor="middle" fill="#082029" font-family="Arial,sans-serif" font-size="10">68</text><circle cx="800.3" cy="250.0" r="17" fill="#4c948f" stroke="#dffff0" stroke-width="2"/><text x="800.3" y="255.0" text-anchor="middle" fill="#082029" font-family="Arial,sans-serif" font-size="10">69</text><circle cx="878.3" cy="239.7" r="17" fill="#4c948f" stroke="#dffff0" stroke-width="2"/><text x="878.3" y="244.7" text-anchor="middle" fill="#082029" font-family="Arial,sans-serif" font-size="10">70</text><circle cx="957.6" cy="239.4" r="17" fill="#4c948f" stroke="#dffff0" stroke-width="2"/><text x="957.6" y="244.4" text-anchor="middle" fill="#082029" font-family="Arial,sans-serif" font-size="10">71</text><circle cx="1035.7" cy="249.2" r="17" fill="#4c948f" stroke="#dffff0" stroke-width="2"/><text x="1035.7" y="254.2" text-anchor="middle" fill="#082029" font-family="Arial,sans-serif" font-size="10">72</text><circle cx="1109.8" cy="268.8" r="17" fill="#4c948f" stroke="#dffff0" stroke-width="2"/><text x="1109.8" y="273.8" text-anchor="middle" fill="#082029" font-family="Arial,sans-serif" font-size="10">73</text><circle cx="1177.5" cy="297.4" r="17" fill="#4c948f" stroke="#dffff0" stroke-width="2"/><text x="1177.5" y="302.4" text-anchor="middle" fill="#082029" font-family="Arial,sans-serif" font-size="10">74</text><circle cx="1236.4" cy="334.1" r="17" fill="#4c948f" stroke="#dffff0" stroke-width="2"/><text x="1236.4" y="339.1" text-anchor="middle" fill="#082029" font-family="Arial,sans-serif" font-size="10">75</text><circle cx="1284.5" cy="377.6" r="17" fill="#4c948f" stroke="#dffff0" stroke-width="2"/><text x="1284.5" y="382.6" text-anchor="middle" fill="#082029" font-family="Arial,sans-serif" font-size="10">76</text><circle cx="1320.2" cy="426.5" r="17" fill="#4c948f" stroke="#dffff0" stroke-width="2"/><text x="1320.2" y="431.5" text-anchor="middle" fill="#082029" font-family="Arial,sans-serif" font-size="10">77</text><circle cx="1342.3" cy="479.1" r="17" fill="#4c948f" stroke="#dffff0" stroke-width="2"/><text x="1342.3" y="484.1" text-anchor="middle" fill="#082029" font-family="Arial,sans-serif" font-size="10">78</text><circle cx="1350.0" cy="533.6" r="17" fill="#4c948f" stroke="#dffff0" stroke-width="2"/><text x="1350.0" y="538.6" text-anchor="middle" fill="#082029" font-family="Arial,sans-serif" font-size="10">79</text>
<circle cx="470" cy="230" r="7" fill="#b7eff1" fill-opacity=".08" stroke="#d9ffff" stroke-width="2" opacity=".7"/><circle cx="607" cy="319" r="10" fill="#b7eff1" fill-opacity=".08" stroke="#d9ffff" stroke-width="2" opacity=".7"/><circle cx="744" cy="408" r="13" fill="#b7eff1" fill-opacity=".08" stroke="#d9ffff" stroke-width="2" opacity=".7"/><circle cx="881" cy="497" r="16" fill="#b7eff1" fill-opacity=".08" stroke="#d9ffff" stroke-width="2" opacity=".7"/><circle cx="1018" cy="586" r="19" fill="#b7eff1" fill-opacity=".08" stroke="#d9ffff" stroke-width="2" opacity=".7"/><circle cx="1155" cy="675" r="7" fill="#b7eff1" fill-opacity=".08" stroke="#d9ffff" stroke-width="2" opacity=".7"/><circle cx="1292" cy="764" r="10" fill="#b7eff1" fill-opacity=".08" stroke="#d9ffff" stroke-width="2" opacity=".7"/><circle cx="489" cy="283" r="13" fill="#b7eff1" fill-opacity=".08" stroke="#d9ffff" stroke-width="2" opacity=".7"/><circle cx="626" cy="372" r="16" fill="#b7eff1" fill-opacity=".08" stroke="#d9ffff" stroke-width="2" opacity=".7"/><circle cx="763" cy="461" r="19" fill="#b7eff1" fill-opacity=".08" stroke="#d9ffff" stroke-width="2" opacity=".7"/><circle cx="900" cy="550" r="7" fill="#b7eff1" fill-opacity=".08" stroke="#d9ffff" stroke-width="2" opacity=".7"/><circle cx="1037" cy="639" r="10" fill="#b7eff1" fill-opacity=".08" stroke="#d9ffff" stroke-width="2" opacity=".7"/><circle cx="1174" cy="728" r="13" fill="#b7eff1" fill-opacity=".08" stroke="#d9ffff" stroke-width="2" opacity=".7"/><circle cx="1311" cy="247" r="16" fill="#b7eff1" fill-opacity=".08" stroke="#d9ffff" stroke-width="2" opacity=".7"/><circle cx="508" cy="336" r="19" fill="#b7eff1" fill-opacity=".08" stroke="#d9ffff" stroke-width="2" opacity=".7"/><circle cx="645" cy="425" r="7" fill="#b7eff1" fill-opacity=".08" stroke="#d9ffff" stroke-width="2" opacity=".7"/><circle cx="782" cy="514" r="10" fill="#b7eff1" fill-opacity=".08" stroke="#d9ffff" stroke-width="2" opacity=".7"/><circle cx="919" cy="603" r="13" fill="#b7eff1" fill-opacity=".08" stroke="#d9ffff" stroke-width="2" opacity=".7"/><circle cx="1056" cy="692" r="16" fill="#b7eff1" fill-opacity=".08" stroke="#d9ffff" stroke-width="2" opacity=".7"/><circle cx="1193" cy="781" r="19" fill="#b7eff1" fill-opacity=".08" stroke="#d9ffff" stroke-width="2" opacity=".7"/><circle cx="1330" cy="300" r="7" fill="#b7eff1" fill-opacity=".08" stroke="#d9ffff" stroke-width="2" opacity=".7"/><circle cx="527" cy="389" r="10" fill="#b7eff1" fill-opacity=".08" stroke="#d9ffff" stroke-width="2" opacity=".7"/><circle cx="664" cy="478" r="13" fill="#b7eff1" fill-opacity=".08" stroke="#d9ffff" stroke-width="2" opacity=".7"/><circle cx="801" cy="567" r="16" fill="#b7eff1" fill-opacity=".08" stroke="#d9ffff" stroke-width="2" opacity=".7"/><circle cx="938" cy="656" r="19" fill="#b7eff1" fill-opacity=".08" stroke="#d9ffff" stroke-width="2" opacity=".7"/><circle cx="1075" cy="745" r="7" fill="#b7eff1" fill-opacity=".08" stroke="#d9ffff" stroke-width="2" opacity=".7"/><circle cx="1212" cy="264" r="10" fill="#b7eff1" fill-opacity=".08" stroke="#d9ffff" stroke-width="2" opacity=".7"/><circle cx="1349" cy="353" r="13" fill="#b7eff1" fill-opacity=".08" stroke="#d9ffff" stroke-width="2" opacity=".7"/><circle cx="546" cy="442" r="16" fill="#b7eff1" fill-opacity=".08" stroke="#d9ffff" stroke-width="2" opacity=".7"/><circle cx="683" cy="531" r="19" fill="#b7eff1" fill-opacity=".08" stroke="#d9ffff" stroke-width="2" opacity=".7"/><circle cx="820" cy="620" r="7" fill="#b7eff1" fill-opacity=".08" stroke="#d9ffff" stroke-width="2" opacity=".7"/><circle cx="957" cy="709" r="10" fill="#b7eff1" fill-opacity=".08" stroke="#d9ffff" stroke-width="2" opacity=".7"/><circle cx="1094" cy="798" r="13" fill="#b7eff1" fill-opacity=".08" stroke="#d9ffff" stroke-width="2" opacity=".7"/><circle cx="1231" cy="317" r="16" fill="#b7eff1" fill-opacity=".08" stroke="#d9ffff" stroke-width="2" opacity=".7"/><circle cx="1368" cy="406" r="19" fill="#b7eff1" fill-opacity=".08" stroke="#d9ffff" stroke-width="2" opacity=".7"/><circle cx="565" cy="495" r="7" fill="#b7eff1" fill-opacity=".08" stroke="#d9ffff" stroke-width="2" opacity=".7"/><circle cx="702" cy="584" r="10" fill="#b7eff1" fill-opacity=".08" stroke="#d9ffff" stroke-width="2" opacity=".7"/><circle cx="839" cy="673" r="13" fill="#b7eff1" fill-opacity=".08" stroke="#d9ffff" stroke-width="2" opacity=".7"/><circle cx="976" cy="762" r="16" fill="#b7eff1" fill-opacity=".08" stroke="#d9ffff" stroke-width="2" opacity=".7"/><circle cx="1113" cy="281" r="19" fill="#b7eff1" fill-opacity=".08" stroke="#d9ffff" stroke-width="2" opacity=".7"/><circle cx="1250" cy="370" r="7" fill="#b7eff1" fill-opacity=".08" stroke="#d9ffff" stroke-width="2" opacity=".7"/><circle cx="1387" cy="459" r="10" fill="#b7eff1" fill-opacity=".08" stroke="#d9ffff" stroke-width="2" opacity=".7"/><circle cx="584" cy="548" r="13" fill="#b7eff1" fill-opacity=".08" stroke="#d9ffff" stroke-width="2" opacity=".7"/><circle cx="721" cy="637" r="16" fill="#b7eff1" fill-opacity=".08" stroke="#d9ffff" stroke-width="2" opacity=".7"/><circle cx="858" cy="726" r="19" fill="#b7eff1" fill-opacity=".08" stroke="#d9ffff" stroke-width="2" opacity=".7"/><circle cx="995" cy="245" r="7" fill="#b7eff1" fill-opacity=".08" stroke="#d9ffff" stroke-width="2" opacity=".7"/><circle cx="1132" cy="334" r="10" fill="#b7eff1" fill-opacity=".08" stroke="#d9ffff" stroke-width="2" opacity=".7"/><circle cx="1269" cy="423" r="13" fill="#b7eff1" fill-opacity=".08" stroke="#d9ffff" stroke-width="2" opacity=".7"/><circle cx="1406" cy="512" r="16" fill="#b7eff1" fill-opacity=".08" stroke="#d9ffff" stroke-width="2" opacity=".7"/><circle cx="603" cy="601" r="19" fill="#b7eff1" fill-opacity=".08" stroke="#d9ffff" stroke-width="2" opacity=".7"/><circle cx="740" cy="690" r="7" fill="#b7eff1" fill-opacity=".08" stroke="#d9ffff" stroke-width="2" opacity=".7"/><circle cx="877" cy="779" r="10" fill="#b7eff1" fill-opacity=".08" stroke="#d9ffff" stroke-width="2" opacity=".7"/><circle cx="1014" cy="298" r="13" fill="#b7eff1" fill-opacity=".08" stroke="#d9ffff" stroke-width="2" opacity=".7"/><circle cx="1151" cy="387" r="16" fill="#b7eff1" fill-opacity=".08" stroke="#d9ffff" stroke-width="2" opacity=".7"/><circle cx="1288" cy="476" r="19" fill="#b7eff1" fill-opacity=".08" stroke="#d9ffff" stroke-width="2" opacity=".7"/>
<text x="920" y="530" text-anchor="middle" fill="#efffdc" font-family="Georgia,serif" font-size="39">79 GROVES</text>
<text x="920" y="570" text-anchor="middle" fill="#9dd8c5" font-family="Arial,sans-serif" font-size="18">numbered root nodes • bridge graph • bubble ecology</text>
<rect x="95" y="210" width="340" height="172" rx="17" fill="#07151d" stroke="#6c917f"/>
<text x="122" y="248" fill="#f1c86a" font-family="Arial,sans-serif" font-size="17">CURRENT 3D STUDY: DEMOTED</text>
<text x="122" y="286" fill="#dce7e3" font-family="Georgia,serif" font-size="21">3 generic groves ≠ Sabaody</text>
<text x="122" y="322" fill="#a3bcc0" font-family="Arial,sans-serif" font-size="15">Reuse its palette and bubble material.</text>
<text x="122" y="349" fill="#a3bcc0" font-family="Arial,sans-serif" font-size="15">Rebuild topology from this network.</text>
<rect x="1380" y="692" width="285" height="152" rx="17" fill="#07151d" stroke="#7bb9b4"/>
<text x="1407" y="731" fill="#a8eff1" font-family="Arial,sans-serif" font-size="17">BUBBLE LAYER</text>
<text x="1407" y="767" fill="#e3eaea" font-family="Arial,sans-serif" font-size="16">transport • hotels</text>
<text x="1407" y="796" fill="#e3eaea" font-family="Arial,sans-serif" font-size="16">helmets • coating</text>
<text x="1407" y="824" fill="#9bb5ba" font-family="Arial,sans-serif" font-size="14">instanced by LOD and zone</text>
<rect x="60" y="962" width="1680" height="102" rx="18" fill="#07141d" stroke="#315363"/>
<text x="88" y="998" fill="#f1c86a" font-family="Arial,sans-serif" font-size="16">BLENDER RULE — build one root/trunk kit, then 79 addressable grove collections</text>
<text x="88" y="1027" fill="#b8cdd1" font-family="Arial,sans-serif" font-size="15">The numbered node graph is mandatory; exact canonical grove placement remains a research layer.</text>
</svg>
