<svg xmlns="http://www.w3.org/2000/svg" width="1800" height="1200" viewBox="0 0 1800 1200">
<title>Totto Land system sketch</title>
<defs>
  <radialGradient id="ocean" cx="50%" cy="45%"><stop offset="0" stop-color="#153e54"/><stop offset="1" stop-color="#06131d"/></radialGradient>
  <linearGradient id="cake" x1="0" y1="0" x2="0" y2="1"><stop stop-color="#fff2bd"/><stop offset=".5" stop-color="#ef9fb9"/><stop offset="1" stop-color="#8f456b"/></linearGradient>
  <linearGradient id="steel" x1="0" y1="0" x2="1" y2="1"><stop stop-color="#dce8ed"/><stop offset=".5" stop-color="#647a86"/><stop offset="1" stop-color="#1d2b34"/></linearGradient>
  <filter id="glow"><feGaussianBlur stdDeviation="10" result="b"/><feMerge><feMergeNode in="b"/><feMergeNode in="SourceGraphic"/></feMerge></filter>
  <marker id="arrow" viewBox="0 0 10 10" refX="8" refY="5" markerWidth="7" markerHeight="7" orient="auto-start-reverse"><path d="M0 0L10 5L0 10z" fill="#78d6e7"/></marker>
</defs>
<rect width="1800" height="1200" fill="url(#ocean)"/>
<text x="70" y="82" fill="#fff6de" font-family="Georgia,serif" font-size="48">TOTTO LAND — SYSTEM SKETCH 01</text>
<text x="72" y="122" fill="#8fb9c4" font-family="Arial,sans-serif" font-size="20">1 central island + 34 subsidiary islands • solid = cited bearing • dashed = unresolved placement</text>
<text x="1718" y="82" text-anchor="end" fill="#f0c66b" font-family="Arial,sans-serif" font-size="18">NOT CANON SCALE</text>
<circle cx="900" cy="560" r="255" fill="none" stroke="#d7b25a" stroke-width="2" stroke-dasharray="7 15" opacity=".38"/>
<circle cx="900" cy="560" r="385" fill="none" stroke="#d7b25a" stroke-width="2" stroke-dasharray="7 15" opacity=".38"/>
<circle cx="900" cy="560" r="515" fill="none" stroke="#d7b25a" stroke-width="2" stroke-dasharray="7 15" opacity=".38"/>
<circle cx="900" cy="560" r="560" fill="none" stroke="#f8dff1" stroke-width="17" stroke-dasharray="1 22" stroke-linecap="round" opacity=".32"/>
<ellipse cx="1281.7" cy="610.2" rx="46" ry="23" fill="#000" opacity=".26"/>
<polygon points="1315.5,598.2 1321.7,610.5 1307.0,618.5 1291.3,625.1 1273.8,620.4 1256.9,618.2 1248.3,608.5 1240.7,598.2 1245.5,587.0 1257.7,578.9 1274.7,578.4 1289.5,576.3 1301.2,582.5 1317.9,587.0" fill="hsl(355 65% 62%)" stroke="#fff4dc" stroke-width="3"/>
<circle cx="1273.7" cy="590.2" r="8" fill="#fff7db" opacity=".48"/>
<text x="1281.7" y="644.2" text-anchor="middle" fill="#e9f1ee" font-family="Arial,sans-serif" font-size="12">09 Fruits</text>
<ellipse cx="900.0" cy="378.2" rx="46" ry="23" fill="#000" opacity=".26"/>
<polygon points="938.5,366.2 932.8,376.3 928.0,388.7 909.4,392.7 893.2,385.3 875.7,385.7 860.5,378.4 863.5,366.2 869.2,356.7 874.6,345.8 892.9,346.4 907.5,345.1 920.1,350.0 938.2,354.4" fill="hsl(318 65% 62%)" stroke="#fff4dc" stroke-width="3"/>
<circle cx="892.0" cy="358.2" r="8" fill="#fff7db" opacity=".48"/>
<text x="900.0" y="412.2" text-anchor="middle" fill="#e9f1ee" font-family="Arial,sans-serif" font-size="12">11 Futoru</text>
<ellipse cx="1134.4" cy="339.9" rx="46" ry="23" fill="#000" opacity=".26"/>
<polygon points="1169.8,327.9 1171.7,339.4 1160.1,348.5 1141.3,347.4 1126.5,350.0 1107.6,349.3 1099.8,338.5 1095.0,327.9 1097.9,316.6 1106.2,305.2 1126.8,306.6 1143.7,301.6 1159.6,307.6 1173.1,315.9" fill="hsl(319 65% 62%)" stroke="#fff4dc" stroke-width="3"/>
<circle cx="1126.4" cy="319.9" r="8" fill="#fff7db" opacity=".48"/>
<text x="1134.4" y="373.9" text-anchor="middle" fill="#e9f1ee" font-family="Arial,sans-serif" font-size="12">26 Piepie</text>
<ellipse cx="594.6" cy="393.9" rx="46" ry="23" fill="#000" opacity=".26"/>
<polygon points="629.5,381.9 633.1,393.8 613.9,397.4 602.9,405.4 584.6,409.8 575.5,397.2 558.5,393.0 556.0,381.9 560.1,371.2 569.7,361.9 587.8,362.8 603.3,357.3 618.0,363.0 630.0,370.9" fill="hsl(106 65% 62%)" stroke="#fff4dc" stroke-width="3"/>
<circle cx="586.6" cy="373.9" r="8" fill="#fff7db" opacity=".48"/>
<text x="594.6" y="427.9" text-anchor="middle" fill="#e9f1ee" font-family="Arial,sans-serif" font-size="12">02 Biscuits</text>
<ellipse cx="491.4" cy="333.7" rx="46" ry="23" fill="#000" opacity=".26"/>
<polygon points="522.7,321.7 524.1,333.3 513.1,341.7 499.4,347.4 483.2,348.3 470.3,341.2 458.3,333.5 458.0,321.7 466.2,312.8 473.3,305.1 483.3,295.5 498.4,299.2 508.9,305.6 516.0,313.0" fill="hsl(198 65% 62%)" stroke="#fff4dc" stroke-width="3"/>
<circle cx="483.4" cy="313.7" r="8" fill="#fff7db" opacity=".48"/>
<text x="491.4" y="367.7" text-anchor="middle" fill="#e9f1ee" font-family="Arial,sans-serif" font-size="12">03 Black</text>
<ellipse cx="750.1" cy="415.2" rx="46" ry="23" fill="#000" opacity=".26"/>
<polygon points="788.2,403.2 778.1,411.8 775.3,423.5 757.7,424.5 742.3,425.1 723.5,424.6 710.8,415.3 717.6,403.2 710.1,390.9 727.6,385.2 741.6,379.3 757.1,383.7 774.0,384.0 778.1,394.6" fill="hsl(115 65% 62%)" stroke="#fff4dc" stroke-width="3"/>
<circle cx="742.1" cy="395.2" r="8" fill="#fff7db" opacity=".48"/>
<text x="750.1" y="449.2" text-anchor="middle" fill="#e9f1ee" font-family="Arial,sans-serif" font-size="12">08 Flavor</text>
<ellipse cx="642.5" cy="233.0" rx="46" ry="23" fill="#000" opacity=".26"/>
<polygon points="672.1,221.0 673.8,232.1 662.1,239.1 650.3,246.2 635.3,244.1 620.5,241.3 611.1,232.2 603.4,221.0 614.0,211.0 621.4,201.6 635.4,198.2 649.3,199.0 663.8,201.4 674.0,209.9" fill="hsl(264 65% 62%)" stroke="#fff4dc" stroke-width="3"/>
<circle cx="634.5" cy="213.0" r="8" fill="#fff7db" opacity=".48"/>
<text x="642.5" y="267.0" text-anchor="middle" fill="#e9f1ee" font-family="Arial,sans-serif" font-size="12">25 Package</text>
<ellipse cx="752.7" cy="301.7" rx="46" ry="23" fill="#000" opacity=".26"/>
<polygon points="795.0,289.7 781.5,298.6 778.5,310.4 760.7,312.2 745.7,309.3 725.4,311.6 712.9,302.0 717.4,289.7 713.7,277.6 730.8,272.1 745.3,269.0 760.9,266.6 776.6,270.5 782.5,280.5" fill="hsl(266 65% 62%)" stroke="#fff4dc" stroke-width="3"/>
<circle cx="744.7" cy="281.7" r="8" fill="#fff7db" opacity=".48"/>
<text x="752.7" y="335.7" text-anchor="middle" fill="#e9f1ee" font-family="Arial,sans-serif" font-size="12">32 Topping</text>
<ellipse cx="900.0" cy="765.8" rx="46" ry="23" fill="#000" opacity=".26"/>
<polygon points="942.4,753.8 938.1,765.6 927.5,775.9 909.8,781.2 890.3,781.1 872.7,775.7 872.1,762.4 862.1,753.8 863.5,742.5 879.3,737.1 890.7,727.8 909.2,728.1 926.4,732.6 929.6,744.7" fill="hsl(90 65% 62%)" stroke="#fff4dc" stroke-width="3"/>
<circle cx="892.0" cy="745.8" r="8" fill="#fff7db" opacity=".48"/>
<text x="900.0" y="799.8" text-anchor="middle" fill="#e9f1ee" font-family="Arial,sans-serif" font-size="12">14 Jelly</text>
<ellipse cx="849.7" cy="862.1" rx="46" ry="23" fill="#000" opacity=".26"/>
<polygon points="882.4,850.1 880.2,859.5 875.2,870.5 859.7,878.1 840.4,876.2 825.3,869.7 820.1,859.3 811.3,850.1 818.5,840.4 824.9,830.1 842.3,829.3 858.1,826.6 869.3,834.4 884.3,839.4" fill="hsl(105 65% 62%)" stroke="#fff4dc" stroke-width="3"/>
<circle cx="841.7" cy="842.1" r="8" fill="#fff7db" opacity=".48"/>
<text x="849.7" y="896.1" text-anchor="middle" fill="#e9f1ee" font-family="Arial,sans-serif" font-size="12">22 Milenge</text>
<ellipse cx="967.2" cy="960.1" rx="46" ry="23" fill="#000" opacity=".26"/>
<polygon points="1000.8,948.1 993.3,957.3 985.2,964.6 975.7,975.4 960.0,971.2 943.9,969.6 940.7,957.4 939.5,948.1 942.5,939.3 950.7,932.8 960.0,924.7 973.8,926.7 984.1,932.5 1001.0,936.1" fill="hsl(300 65% 62%)" stroke="#fff4dc" stroke-width="3"/>
<circle cx="959.2" cy="940.1" r="8" fill="#fff7db" opacity=".48"/>
<text x="967.2" y="994.1" text-anchor="middle" fill="#e9f1ee" font-family="Arial,sans-serif" font-size="12">29 Rokumitsu</text>
<ellipse cx="1205.4" cy="750.1" rx="46" ry="23" fill="#000" opacity=".26"/>
<polygon points="1247.6,738.1 1243.4,749.8 1228.5,756.7 1213.9,761.9 1197.7,759.8 1186.4,753.4 1175.3,747.4 1161.5,738.1 1168.5,726.7 1180.2,717.8 1196.7,713.5 1214.7,712.1 1232.8,716.1 1238.0,728.1" fill="hsl(85 65% 62%)" stroke="#fff4dc" stroke-width="3"/>
<circle cx="1197.4" cy="730.1" r="8" fill="#fff7db" opacity=".48"/>
<text x="1205.4" y="784.1" text-anchor="middle" fill="#e9f1ee" font-family="Arial,sans-serif" font-size="12">12 Ice</text>
<ellipse cx="586.5" cy="882.5" rx="46" ry="23" fill="#000" opacity=".26"/>
<polygon points="623.1,870.5 615.8,880.9 608.7,891.0 594.8,897.3 579.6,892.7 565.4,890.0 557.0,880.9 547.1,870.5 557.5,860.3 568.1,853.6 580.0,849.8 593.5,847.9 607.8,850.9 616.4,859.9" fill="hsl(237 65% 62%)" stroke="#fff4dc" stroke-width="3"/>
<circle cx="578.5" cy="862.5" r="8" fill="#fff7db" opacity=".48"/>
<text x="586.5" y="916.5" text-anchor="middle" fill="#e9f1ee" font-family="Arial,sans-serif" font-size="12">04 Cacao</text>
<ellipse cx="750.1" cy="728.8" rx="46" ry="23" fill="#000" opacity=".26"/>
<polygon points="784.7,716.8 780.3,726.1 773.0,735.2 758.5,740.2 740.4,744.1 729.5,733.4 713.0,728.2 709.1,716.8 712.2,705.1 730.2,700.8 740.9,690.9 757.1,697.3 773.2,698.2 778.5,708.0" fill="hsl(201 65% 62%)" stroke="#fff4dc" stroke-width="3"/>
<circle cx="742.1" cy="708.8" r="8" fill="#fff7db" opacity=".48"/>
<text x="750.1" y="762.8" text-anchor="middle" fill="#e9f1ee" font-family="Arial,sans-serif" font-size="12">05 Candy</text>
<ellipse cx="665.6" cy="804.1" rx="46" ry="23" fill="#000" opacity=".26"/>
<polygon points="709.6,792.1 696.4,801.6 688.9,810.9 675.5,819.9 658.8,811.2 640.8,812.1 638.0,800.7 624.1,792.1 627.5,780.4 637.5,769.6 656.4,766.1 673.6,769.7 690.7,772.0 702.4,780.8" fill="hsl(14 65% 62%)" stroke="#fff4dc" stroke-width="3"/>
<circle cx="657.6" cy="784.1" r="8" fill="#fff7db" opacity=".48"/>
<text x="665.6" y="838.1" text-anchor="middle" fill="#e9f1ee" font-family="Arial,sans-serif" font-size="12">10 Funwari</text>
<ellipse cx="454.0" cy="767.7" rx="46" ry="23" fill="#000" opacity=".26"/>
<polygon points="487.5,755.7 479.3,764.6 471.8,772.1 460.3,775.9 446.8,778.8 435.0,773.3 422.7,766.8 424.8,755.7 419.9,743.6 436.3,739.4 448.0,736.5 461.3,732.0 473.0,738.1 478.9,746.9" fill="hsl(102 65% 62%)" stroke="#fff4dc" stroke-width="3"/>
<circle cx="446.0" cy="747.7" r="8" fill="#fff7db" opacity=".48"/>
<text x="454.0" y="801.7" text-anchor="middle" fill="#e9f1ee" font-family="Arial,sans-serif" font-size="12">19 Liqueur</text>
<ellipse cx="518.3" cy="533.8" rx="46" ry="23" fill="#000" opacity=".26"/>
<polygon points="552.0,521.8 557.4,533.9 537.9,537.6 526.8,545.6 509.5,546.5 492.6,542.4 490.0,530.5 484.3,521.8 487.0,512.2 498.0,505.5 508.9,495.4 525.7,501.0 541.3,503.3 546.2,513.2" fill="hsl(45 65% 62%)" stroke="#fff4dc" stroke-width="3"/>
<circle cx="510.3" cy="513.8" r="8" fill="#fff7db" opacity=".48"/>
<text x="518.3" y="567.8" text-anchor="middle" fill="#e9f1ee" font-family="Arial,sans-serif" font-size="12">06 Cheese</text>
<ellipse cx="389.4" cy="623.1" rx="46" ry="23" fill="#000" opacity=".26"/>
<polygon points="427.1,611.1 424.5,623.5 411.8,631.7 396.6,634.4 381.4,636.8 365.8,632.9 357.5,622.4 355.2,611.1 357.1,599.6 366.8,590.3 380.8,583.3 396.7,587.7 410.4,591.7 418.4,600.8" fill="hsl(342 65% 62%)" stroke="#fff4dc" stroke-width="3"/>
<circle cx="381.4" cy="603.1" r="8" fill="#fff7db" opacity=".48"/>
<text x="389.4" y="657.1" text-anchor="middle" fill="#e9f1ee" font-family="Arial,sans-serif" font-size="12">13 Jam</text>
<ellipse cx="402.5" cy="470.7" rx="46" ry="23" fill="#000" opacity=".26"/>
<polygon points="440.0,458.7 428.5,467.9 423.9,478.4 409.4,480.8 396.0,479.9 381.3,478.3 367.6,471.1 364.5,458.7 368.3,446.6 383.3,440.9 395.9,437.4 410.4,433.4 426.1,437.0 432.3,448.2" fill="hsl(45 65% 62%)" stroke="#fff4dc" stroke-width="3"/>
<circle cx="394.5" cy="450.7" r="8" fill="#fff7db" opacity=".48"/>
<text x="402.5" y="504.7" text-anchor="middle" fill="#e9f1ee" font-family="Arial,sans-serif" font-size="12">24 Nuts</text>
<ellipse cx="1142.5" cy="631.9" rx="46" ry="23" fill="#000" opacity=".26"/>
<polygon points="1180.3,619.9 1173.9,629.6 1163.7,636.9 1152.2,647.1 1135.4,639.9 1119.6,638.3 1103.1,632.1 1099.7,619.9 1114.7,611.3 1115.6,598.3 1133.8,595.4 1150.6,597.1 1169.0,598.6 1181.3,607.9" fill="hsl(39 65% 62%)" stroke="#79939d" stroke-width="3" stroke-dasharray="7 6"/>
<circle cx="1134.5" cy="611.9" r="8" fill="#fff7db" opacity=".48"/>
<text x="1142.5" y="665.9" text-anchor="middle" fill="#e9f1ee" font-family="Arial,sans-serif" font-size="12">01 100%</text>
<ellipse cx="657.5" cy="512.1" rx="46" ry="23" fill="#000" opacity=".26"/>
<polygon points="701.2,500.1 687.8,509.5 679.8,518.0 666.2,524.6 648.7,524.6 636.2,517.2 622.0,511.1 615.3,500.1 625.9,490.4 629.5,477.6 648.7,475.3 665.2,478.4 685.6,477.5 691.5,489.6" fill="hsl(314 65% 62%)" stroke="#79939d" stroke-width="3" stroke-dasharray="7 6"/>
<circle cx="649.5" cy="492.1" r="8" fill="#fff7db" opacity=".48"/>
<text x="657.5" y="546.1" text-anchor="middle" fill="#e9f1ee" font-family="Arial,sans-serif" font-size="12">07 Cutlery</text>
<ellipse cx="1049.9" cy="728.8" rx="46" ry="23" fill="#000" opacity=".26"/>
<polygon points="1095.0,716.8 1077.5,725.3 1074.8,736.8 1058.8,741.8 1043.0,736.2 1021.7,739.4 1015.2,727.5 1011.2,716.8 1009.8,704.4 1025.9,697.5 1040.8,691.4 1058.9,691.5 1075.9,695.9 1078.9,707.8" fill="hsl(310 65% 62%)" stroke="#79939d" stroke-width="3" stroke-dasharray="7 6"/>
<circle cx="1041.9" cy="708.8" r="8" fill="#fff7db" opacity=".48"/>
<text x="1049.9" y="762.8" text-anchor="middle" fill="#e9f1ee" font-family="Arial,sans-serif" font-size="12">15 Kibo</text>
<ellipse cx="1049.9" cy="415.2" rx="46" ry="23" fill="#000" opacity=".26"/>
<polygon points="1081.8,403.2 1081.5,413.0 1073.9,422.5 1057.5,424.6 1041.2,427.6 1024.8,423.4 1015.4,413.9 1007.9,403.2 1011.2,391.3 1028.2,385.8 1040.3,376.4 1057.8,381.0 1072.6,385.0 1079.8,394.0" fill="hsl(41 65% 62%)" stroke="#79939d" stroke-width="3" stroke-dasharray="7 6"/>
<circle cx="1041.9" cy="395.2" r="8" fill="#fff7db" opacity=".48"/>
<text x="1049.9" y="449.2" text-anchor="middle" fill="#e9f1ee" font-family="Arial,sans-serif" font-size="12">16 Kimi</text>
<ellipse cx="1142.5" cy="512.1" rx="46" ry="23" fill="#000" opacity=".26"/>
<polygon points="1186.4,500.1 1177.8,511.0 1166.5,519.4 1149.8,520.6 1133.6,525.3 1115.0,522.2 1110.6,510.0 1106.4,500.1 1102.1,487.6 1119.4,481.6 1135.2,479.6 1152.2,472.9 1170.2,477.8 1180.6,488.4" fill="hsl(25 65% 62%)" stroke="#79939d" stroke-width="3" stroke-dasharray="7 6"/>
<circle cx="1134.5" cy="492.1" r="8" fill="#fff7db" opacity=".48"/>
<text x="1142.5" y="546.1" text-anchor="middle" fill="#e9f1ee" font-family="Arial,sans-serif" font-size="12">17 Kinko</text>
<ellipse cx="657.5" cy="631.9" rx="46" ry="23" fill="#000" opacity=".26"/>
<polygon points="701.4,619.9 693.4,631.0 677.1,635.6 666.1,644.0 648.7,644.6 637.0,636.3 629.3,628.6 615.8,619.9 626.6,610.4 637.3,603.7 649.3,596.8 666.0,595.9 681.7,600.4 691.6,609.3" fill="hsl(29 65% 62%)" stroke="#79939d" stroke-width="3" stroke-dasharray="7 6"/>
<circle cx="649.5" cy="611.9" r="8" fill="#fff7db" opacity=".48"/>
<text x="657.5" y="665.9" text-anchor="middle" fill="#e9f1ee" font-family="Arial,sans-serif" font-size="12">18 Komugi</text>
<ellipse cx="544.3" cy="684.0" rx="46" ry="23" fill="#000" opacity=".26"/>
<polygon points="575.7,672.0 581.9,683.6 570.8,693.3 551.1,691.0 535.1,697.8 524.5,687.9 508.9,682.9 502.3,672.0 514.6,662.8 522.4,654.4 536.6,650.3 552.7,648.4 568.5,652.5 579.7,661.0" fill="hsl(198 65% 62%)" stroke="#79939d" stroke-width="3" stroke-dasharray="7 6"/>
<circle cx="536.3" cy="664.0" r="8" fill="#fff7db" opacity=".48"/>
<text x="544.3" y="718.0" text-anchor="middle" fill="#e9f1ee" font-family="Arial,sans-serif" font-size="12">20 Loving</text>
<ellipse cx="950.3" cy="281.9" rx="46" ry="23" fill="#000" opacity=".26"/>
<polygon points="986.5,269.9 988.9,281.8 976.0,290.6 957.7,290.7 942.1,292.8 928.3,287.6 922.2,278.6 915.2,269.9 916.8,259.6 923.1,248.1 941.0,243.8 957.5,249.5 974.1,250.7 989.4,257.8" fill="hsl(167 65% 62%)" stroke="#79939d" stroke-width="3" stroke-dasharray="7 6"/>
<circle cx="942.3" cy="261.9" r="8" fill="#fff7db" opacity=".48"/>
<text x="950.3" y="315.9" text-anchor="middle" fill="#e9f1ee" font-family="Arial,sans-serif" font-size="12">21 Margarine</text>
<ellipse cx="1047.3" cy="842.3" rx="46" ry="23" fill="#000" opacity=".26"/>
<polygon points="1082.0,830.3 1081.7,840.9 1074.5,852.2 1057.3,858.2 1038.0,856.6 1026.4,847.1 1009.9,841.9 1005.2,830.3 1008.2,818.2 1027.2,814.2 1039.3,807.9 1055.6,807.1 1074.2,808.7 1074.8,821.9" fill="hsl(291 65% 62%)" stroke="#79939d" stroke-width="3" stroke-dasharray="7 6"/>
<circle cx="1039.3" cy="822.3" r="8" fill="#fff7db" opacity=".48"/>
<text x="1047.3" y="876.3" text-anchor="middle" fill="#e9f1ee" font-family="Arial,sans-serif" font-size="12">23 Noko</text>
<ellipse cx="1255.7" cy="460.0" rx="46" ry="23" fill="#000" opacity=".26"/>
<polygon points="1288.0,448.0 1283.5,456.6 1276.6,464.8 1262.7,467.6 1245.6,476.3 1234.4,465.1 1224.6,457.6 1221.1,448.0 1226.9,439.1 1234.4,430.9 1248.9,429.0 1263.3,426.6 1278.7,429.6 1284.1,439.3" fill="hsl(249 65% 62%)" stroke="#79939d" stroke-width="3" stroke-dasharray="7 6"/>
<circle cx="1247.7" cy="440.0" r="8" fill="#fff7db" opacity=".48"/>
<text x="1255.7" y="494.0" text-anchor="middle" fill="#e9f1ee" font-family="Arial,sans-serif" font-size="12">27 Poripori</text>
<ellipse cx="766.7" cy="950.1" rx="46" ry="23" fill="#000" opacity=".26"/>
<polygon points="805.5,938.1 792.5,947.2 791.2,960.7 773.1,958.7 759.5,961.4 749.4,954.1 737.1,948.5 730.0,938.1 732.2,925.8 743.7,916.9 759.0,913.2 774.8,912.1 784.8,921.4 793.1,928.7" fill="hsl(136 65% 62%)" stroke="#79939d" stroke-width="3" stroke-dasharray="7 6"/>
<circle cx="758.7" cy="930.1" r="8" fill="#fff7db" opacity=".48"/>
<text x="766.7" y="984.1" text-anchor="middle" fill="#e9f1ee" font-family="Arial,sans-serif" font-size="12">28 Potato</text>
<ellipse cx="1346.0" cy="376.3" rx="46" ry="23" fill="#000" opacity=".26"/>
<polygon points="1384.0,364.3 1374.8,374.5 1362.7,379.7 1354.4,391.3 1337.4,392.1 1329.2,379.8 1320.3,373.4 1311.3,364.3 1312.4,352.4 1327.0,346.7 1339.3,342.6 1354.0,338.6 1365.6,346.2 1381.1,351.9" fill="hsl(353 65% 62%)" stroke="#79939d" stroke-width="3" stroke-dasharray="7 6"/>
<circle cx="1338.0" cy="356.3" r="8" fill="#fff7db" opacity=".48"/>
<text x="1346.0" y="410.3" text-anchor="middle" fill="#e9f1ee" font-family="Arial,sans-serif" font-size="12">30 Sanshoku</text>
<ellipse cx="1213.5" cy="261.5" rx="46" ry="23" fill="#000" opacity=".26"/>
<polygon points="1242.6,249.5 1238.0,258.2 1232.7,267.1 1219.6,269.0 1205.0,277.1 1195.3,266.3 1184.4,259.8 1184.3,249.5 1179.2,237.3 1191.6,229.3 1205.0,222.1 1222.2,221.6 1236.4,228.3 1242.5,239.2" fill="hsl(172 65% 62%)" stroke="#79939d" stroke-width="3" stroke-dasharray="7 6"/>
<circle cx="1205.5" cy="241.5" r="8" fill="#fff7db" opacity=".48"/>
<text x="1213.5" y="295.5" text-anchor="middle" fill="#e9f1ee" font-family="Arial,sans-serif" font-size="12">31 Tanega</text>
<ellipse cx="1308.6" cy="810.3" rx="46" ry="23" fill="#000" opacity=".26"/>
<polygon points="1336.3,798.3 1343.1,810.5 1326.7,815.0 1315.2,819.7 1300.1,825.5 1286.3,818.8 1275.2,810.1 1277.6,798.3 1282.6,789.1 1288.1,779.4 1300.9,773.5 1315.8,775.1 1331.7,777.0 1334.0,789.3" fill="hsl(289 65% 62%)" stroke="#79939d" stroke-width="3" stroke-dasharray="7 6"/>
<circle cx="1300.6" cy="790.3" r="8" fill="#fff7db" opacity=".48"/>
<text x="1308.6" y="844.3" text-anchor="middle" fill="#e9f1ee" font-family="Arial,sans-serif" font-size="12">33 Unique</text>
<ellipse cx="832.8" cy="183.9" rx="46" ry="23" fill="#000" opacity=".26"/>
<polygon points="868.2,171.9 866.4,183.9 855.6,193.0 840.7,197.4 824.8,197.5 810.8,192.2 800.6,183.3 799.8,171.9 807.2,162.9 809.0,150.0 826.3,151.0 841.1,145.3 851.0,155.1 863.6,161.0" fill="hsl(194 65% 62%)" stroke="#79939d" stroke-width="3" stroke-dasharray="7 6"/>
<circle cx="824.8" cy="163.9" r="8" fill="#fff7db" opacity=".48"/>
<text x="832.8" y="217.9" text-anchor="middle" fill="#e9f1ee" font-family="Arial,sans-serif" font-size="12">34 Yakigashi</text>
<ellipse cx="900" cy="622" rx="130" ry="48" fill="#000" opacity=".34"/>
<ellipse cx="900" cy="595" rx="118" ry="58" fill="#82435f" stroke="#ffe1b1" stroke-width="4"/>
<rect x="804" y="540" width="192" height="58" rx="22" fill="url(#cake)" stroke="#ffe1b1" stroke-width="4"/>
<ellipse cx="900" cy="541" rx="96" ry="38" fill="#fff0bc" stroke="#ffe1b1" stroke-width="4"/>
<rect x="842" y="484" width="116" height="58" rx="18" fill="#ef9fb9" stroke="#ffe1b1" stroke-width="4"/>
<ellipse cx="900" cy="484" rx="58" ry="25" fill="#fff6cf" stroke="#ffe1b1" stroke-width="4"/>
<path d="M872 468 L887 405 L900 450 L916 392 L931 468Z" fill="#f3d06b" stroke="#fff1bd" stroke-width="4" filter="url(#glow)"/>
<text x="900" y="663" text-anchor="middle" fill="#fff7dc" font-family="Georgia,serif" font-size="20">WHOLE CAKE ISLAND — CENTRAL</text>
<rect x="64" y="1010" width="1672" height="126" rx="18" fill="#07151d" stroke="#2d5968"/>
<text x="92" y="1052" fill="#f0c66b" font-family="Arial,sans-serif" font-size="17">BLENDER BUILD RULE</text>
<text x="92" y="1085" fill="#d5e4e7" font-family="Arial,sans-serif" font-size="18">Each numbered island becomes its own collection, silhouette, material research lane, and LOD set.</text>
<text x="92" y="1116" fill="#8fb9c4" font-family="Arial,sans-serif" font-size="16">The rings are a topology scaffold. Unknown bearings remain unresolved instead of being disguised as canon.</text>
</svg>
